<svg width="116" height="130" viewBox="0 0 116 130" fill="none" xmlns="http://www.w3.org/2000/svg">
<mask id="path-1-inside-1_8_37" fill="white">
<path d="M57.3655 0.00129661C54.9258 0.0219843 52.5227 0.227482 50.1796 0.637925C37.2593 2.90198 25.3596 7.85295 16.5327 14.9993C7.70554 22.1456 1.94096 31.3812 0.901783 42.5974L0.900673 42.6085L0.899563 42.6195C-1.44579 65.758 11.8345 84.6485 19.1084 92.6982C20.5545 94.2992 21.0691 96.4424 20.9217 98.4527C20.7746 100.463 20.0779 102.451 19.0904 104.476C17.1158 108.528 13.8992 112.768 10.4778 116.739C6.60392 121.236 2.87965 124.932 0 127.67C1.99924 127.335 4.09785 126.464 6.29222 125.086C10.3612 122.53 14.4951 118.335 17.9765 113.694C21.4579 109.054 24.3068 103.963 25.9707 99.7409C26.8029 97.6296 27.3341 95.7302 27.5289 94.3014C27.7232 92.8731 27.4798 91.9871 27.4307 91.9052C23.173 84.808 18.7551 77.5543 16.1377 70.0833C13.5204 62.6123 12.7515 54.7565 16.1175 47.0925C23.1183 31.1519 37.7725 23.623 52.4142 22.3762C67.0164 21.1328 81.8249 25.7955 90.3132 34.7088L96.7781 40.908L116 29.4691C110.354 22.2107 100.598 14.2071 89.2879 8.43469C79.977 3.68315 69.6641 0.44153 59.8169 0.0415685C58.9961 0.0084683 58.1787 -0.00532322 57.3655 0.0018485V0.00129661ZM90.3132 34.7088L90.2971 34.6928L90.3831 34.7792C90.3601 34.7552 90.336 34.7323 90.3138 34.7086L90.3132 34.7088ZM54.8952 27.1965C54.2102 27.2246 53.5255 27.264 52.8413 27.3225C51.8527 27.4066 50.8679 27.5239 49.8881 27.6687L52.5604 40.1025C54.1592 39.651 55.7959 39.3238 57.4582 39.1194L54.8955 27.1962L54.8952 27.1965ZM67.0661 28.2055C65.7155 31.7486 65.0316 35.354 65.1293 38.9741C66.8041 39.1065 68.4839 39.3423 70.1587 39.6794C69.9177 36.3169 70.5212 32.9407 71.9245 29.479C70.3535 28.977 68.7284 28.5514 67.0661 28.2055ZM37.4586 31.4576C35.7621 32.2928 34.1279 33.2615 32.5702 34.3627C37.4413 36.8071 40.8137 40.6415 42.2056 45.2841C43.5756 44.2249 45.0214 43.3028 46.5255 42.5083C44.8263 38.0241 41.6466 34.2096 37.4586 31.4576ZM61.9213 43.8139C61.6005 43.8133 61.2807 43.8177 60.9618 43.8268C60.2193 43.8478 59.483 43.8936 58.7547 43.9653C47.0992 45.1172 37.2967 52.3115 34.4754 68.8098C33.8653 72.3791 35.6669 80.6216 37.8743 87.4728C40.0815 94.3235 42.4912 100.028 42.4912 100.028L42.6311 100.358L42.6708 100.716C43.2148 105.598 40.1423 110.361 36.7833 115.131C34.5528 118.299 32.223 121.228 30.1302 123.88C36.7916 123.508 42.8876 120.574 48.7757 115.344C48.7413 115.206 48.7285 115.148 48.6888 114.986C48.4484 113.995 48.1462 112.587 48.2206 110.937C48.3443 108.183 49.7954 104.88 53.4436 102.147C46.6221 92.487 45.4228 80.4227 46.7656 70.4182L47.0115 68.5839L48.8506 68.2943C65.1474 65.7318 75.8419 60.3474 87.5254 53.2356C79.8743 47.2003 70.5395 43.8255 61.9208 43.8136L61.9213 43.8139ZM95.2829 54.2515C81.8424 62.6692 69.8697 69.6072 51.5521 72.829C50.6492 82.0441 52.2257 92.645 58.5537 100.633C62.0529 100.801 65.0108 102.557 66.8538 105.097C68.7265 107.677 69.6144 110.934 69.8597 114.373C76.3235 120.283 87.3375 125.137 96.9948 130C96.115 119.12 96.9127 108.943 92.9597 98.5244L75.5175 91.5458L75.5003 91.5384C71.5276 89.8784 69.0243 87.734 68.1417 84.91C67.259 82.0866 67.8991 79.4027 68.4714 76.3415L69.082 73.0723L72.063 74.5828C78.5598 77.8762 86.3278 80.2429 93.587 80.1174L95.4139 80.0854L95.9976 81.8061C98.9377 90.4772 99.5814 97.4216 100.37 104.481L102.531 105.339C103.676 97.2352 103.062 86.3932 101.459 76.5351C99.9428 67.2072 97.3734 58.5975 95.2829 54.2509V54.2515ZM48.9508 116.07C48.948 116.193 48.9769 116.196 48.9536 116.081C48.953 116.079 48.9508 116.072 48.9508 116.07Z"/>
</mask>
<path d="M57.3655 0.00129661H62.3655V-5.04128L57.3231 -4.99852L57.3655 0.00129661ZM50.1796 0.637925L49.3168 -4.28709L49.3165 -4.28703L50.1796 0.637925ZM16.5327 14.9993L19.6788 18.8854L19.6789 18.8853L16.5327 14.9993ZM0.901783 42.5974L5.87665 43.0981L5.87863 43.0784L5.88046 43.0587L0.901783 42.5974ZM0.900673 42.6085L-4.0742 42.1078L-4.07422 42.1081L0.900673 42.6085ZM0.899563 42.6195L5.87408 43.1237L5.87446 43.1199L0.899563 42.6195ZM19.1084 92.6982L22.8189 89.3467L22.8182 89.346L19.1084 92.6982ZM20.9217 98.4527L15.9351 98.0871L15.935 98.0878L20.9217 98.4527ZM19.0904 104.476L14.596 102.285L14.5958 102.286L19.0904 104.476ZM10.4778 116.739L6.68979 113.476L6.68956 113.476L10.4778 116.739ZM0 127.67L-3.44488 124.046L-15.2832 135.299L0.825971 132.601L0 127.67ZM6.29222 125.086L3.63288 120.852L3.63232 120.852L6.29222 125.086ZM17.9765 113.694L21.9761 116.695L21.9762 116.695L17.9765 113.694ZM25.9707 99.7409L21.319 97.9075L21.319 97.9075L25.9707 99.7409ZM27.5289 94.3014L32.4831 94.977L32.4833 94.9753L27.5289 94.3014ZM27.4307 91.9052L31.7188 89.3337L31.7183 89.333L27.4307 91.9052ZM16.1175 47.0925L11.5395 45.0819L11.5395 45.0819L16.1175 47.0925ZM52.4142 22.3762L52.8384 27.3582L52.8384 27.3582L52.4142 22.3762ZM90.3132 34.7088L86.7892 38.2558L86.8206 38.2871L86.8526 38.3178L90.3132 34.7088ZM96.7781 40.908L93.3175 44.5169L96.0645 47.151L99.335 45.2047L96.7781 40.908ZM116 29.4691L118.557 33.7658L123.424 30.8696L119.947 26.3993L116 29.4691ZM89.2879 8.43469L91.5608 3.98116L91.5607 3.98108L89.2879 8.43469ZM59.8169 0.0415685L60.0198 -4.95431L60.0184 -4.95437L59.8169 0.0415685ZM57.3655 0.0018485H52.3655V5.04614L57.4096 5.00165L57.3655 0.0018485ZM90.2971 34.6928L93.8211 31.1458L86.7555 38.2223L90.2971 34.6928ZM90.3831 34.7792L86.8416 38.3086L93.9901 31.3165L90.3831 34.7792ZM90.3138 34.7086L93.9641 31.2917L91.4212 28.575L88.0888 30.2309L90.3138 34.7086ZM54.8952 27.1965L55.1004 32.1922L57.0307 32.113L58.4063 30.7563L54.8952 27.1965ZM52.8413 27.3225L53.2653 32.3045L53.2671 32.3043L52.8413 27.3225ZM49.8881 27.6687L49.157 22.7224L43.8786 23.5026L44.9997 28.7193L49.8881 27.6687ZM52.5604 40.1025L47.6721 41.1531L48.7917 46.3626L53.9195 44.9143L52.5604 40.1025ZM57.4582 39.1194L58.0684 44.0821L63.4956 43.4147L62.3466 38.0688L57.4582 39.1194ZM54.8955 27.1962L59.7839 26.1455L57.8698 17.24L51.3845 23.6363L54.8955 27.1962ZM67.0661 28.2055L68.0847 23.3103L63.9121 22.4421L62.3941 26.4245L67.0661 28.2055ZM65.1293 38.9741L60.1312 39.109L60.2525 43.6041L64.7353 43.9585L65.1293 38.9741ZM70.1587 39.6794L69.1721 44.5811L75.6156 45.8779L75.1459 39.322L70.1587 39.6794ZM71.9245 29.479L76.5582 31.3574L78.5848 26.3583L73.4465 24.7163L71.9245 29.479ZM37.4586 31.4576L40.2043 27.279L37.815 25.7089L35.25 26.9718L37.4586 31.4576ZM32.5702 34.3627L29.684 30.2798L22.8763 35.0923L30.3276 38.8315L32.5702 34.3627ZM42.2056 45.2841L37.4162 46.72L39.5063 53.6911L45.2639 49.2397L42.2056 45.2841ZM46.5255 42.5083L48.8606 46.9296L52.7661 44.8668L51.2011 40.7366L46.5255 42.5083ZM61.9213 43.8139L61.9127 48.8139L64.1736 39.3499L61.9213 43.8139ZM60.9618 43.8268L61.1029 48.8248L61.1045 48.8248L60.9618 43.8268ZM58.7547 43.9653L58.2647 38.9894L58.2629 38.9895L58.7547 43.9653ZM34.4754 68.8098L29.5469 67.967L29.5468 67.9674L34.4754 68.8098ZM37.8743 87.4728L42.6334 85.9395L42.6334 85.9395L37.8743 87.4728ZM42.4912 100.028L37.8853 101.974L37.8868 101.977L42.4912 100.028ZM42.6311 100.358L47.6005 99.8063L47.52 99.0812L47.2355 98.4092L42.6311 100.358ZM42.6708 100.716L37.7014 101.268L37.7015 101.269L42.6708 100.716ZM36.7833 115.131L32.6952 112.252L32.6948 112.253L36.7833 115.131ZM30.1302 123.88L26.2049 120.783L19.3339 129.492L30.4093 128.873L30.1302 123.88ZM48.7757 115.344L52.0963 119.082L54.36 117.071L53.6269 114.133L48.7757 115.344ZM48.6888 114.986L43.8296 116.164L43.8326 116.177L48.6888 114.986ZM48.2206 110.937L53.2155 111.162L53.2155 111.162L48.2206 110.937ZM53.4436 102.147L56.4418 106.148L60.332 103.233L57.5279 99.2625L53.4436 102.147ZM46.7656 70.4182L51.7212 71.0833L51.7213 71.0826L46.7656 70.4182ZM47.0115 68.5839L46.2337 63.6448L42.5512 64.2247L42.0559 67.9195L47.0115 68.5839ZM48.8506 68.2943L48.0739 63.355L48.0728 63.3551L48.8506 68.2943ZM87.5254 53.2356L90.1252 57.5065L96.2708 53.7657L90.622 49.3099L87.5254 53.2356ZM61.9208 43.8136L61.9277 38.8136L59.6685 48.2776L61.9208 43.8136ZM95.2829 54.2515L97.9368 58.489L100.283 57.0197V54.2515H95.2829ZM51.5521 72.829L50.686 67.9046L46.9462 68.5623L46.5759 72.3414L51.5521 72.829ZM58.5537 100.633L54.6346 103.738L56.0449 105.518L58.3136 105.627L58.5537 100.633ZM66.8538 105.097L62.8071 108.033L62.8074 108.034L66.8538 105.097ZM69.8597 114.373L64.8724 114.728L65.0143 116.717L66.4858 118.063L69.8597 114.373ZM96.9948 130L94.746 134.466L102.696 138.469L101.979 129.597L96.9948 130ZM92.9597 98.5244L97.6345 96.7507L96.8556 94.6978L94.8171 93.8822L92.9597 98.5244ZM75.5175 91.5458L73.5314 96.1344L73.5954 96.1621L73.6601 96.188L75.5175 91.5458ZM75.5003 91.5384L77.4863 86.9497L77.4572 86.9371L77.428 86.9249L75.5003 91.5384ZM68.1417 84.91L72.914 83.4185L72.9139 83.4182L68.1417 84.91ZM68.4714 76.3415L73.3862 77.2604L73.3864 77.2595L68.4714 76.3415ZM69.082 73.0723L71.342 68.6122L65.3918 65.5971L64.167 72.1542L69.082 73.0723ZM72.063 74.5828L74.3238 70.1231L74.323 70.1227L72.063 74.5828ZM93.587 80.1174L93.6734 85.1166L93.6745 85.1166L93.587 80.1174ZM95.4139 80.0854L100.149 78.4791L98.9761 75.0222L95.3263 75.0862L95.4139 80.0854ZM95.9976 81.8061L100.733 80.2005L100.733 80.1998L95.9976 81.8061ZM100.37 104.481L95.4005 105.035L95.7337 108.019L98.5236 109.127L100.37 104.481ZM102.531 105.339L100.685 109.986L106.592 112.333L107.482 106.039L102.531 105.339ZM101.459 76.5351L96.5238 77.3374L96.5238 77.3374L101.459 76.5351ZM95.2829 54.2509L99.7888 52.0838L90.2829 54.2509H95.2829ZM48.9508 116.07H53.9508L43.9521 115.957L48.9508 116.07ZM48.9536 116.081L53.853 115.083L53.8303 114.972L53.8025 114.861L48.9536 116.081ZM57.3231 -4.99852C54.6312 -4.9757 51.9525 -4.74877 49.3168 -4.28709L51.0423 5.56294C53.0929 5.20373 55.2204 5.01967 57.4079 5.00112L57.3231 -4.99852ZM49.3165 -4.28703C35.7444 -1.90875 23.0059 3.32525 13.3865 11.1132L19.6789 18.8853C27.7132 12.3807 38.7741 7.71271 51.0426 5.56288L49.3165 -4.28703ZM13.3865 11.1132C3.71642 18.942 -2.89106 29.3369 -4.07689 42.1362L5.88046 43.0587C6.77297 33.4254 11.6947 25.3493 19.6788 18.8854L13.3865 11.1132ZM-4.07308 42.0968L-4.0742 42.1078L5.87554 43.1092L5.87665 43.0981L-4.07308 42.0968ZM-4.07422 42.1081L-4.07533 42.1191L5.87446 43.1199L5.87557 43.1089L-4.07422 42.1081ZM-4.07495 42.1153C-6.63438 67.3657 7.78886 87.6291 15.3986 96.0505L22.8182 89.346C15.8801 81.668 3.74279 64.1502 5.87407 43.1237L-4.07495 42.1153ZM15.398 96.0497C15.726 96.4129 16.0072 97.1031 15.9351 98.0871L25.9083 98.8183C26.1309 95.7818 25.383 92.1854 22.8189 89.3467L15.398 96.0497ZM15.935 98.0878C15.853 99.2085 15.4445 100.545 14.596 102.285L23.5848 106.667C24.7113 104.357 25.6962 101.717 25.9084 98.8176L15.935 98.0878ZM14.5958 102.286C12.9084 105.748 10.0307 109.598 6.68979 113.476L14.2658 120.003C17.7678 115.938 21.3233 111.308 23.585 106.667L14.5958 102.286ZM6.68956 113.476C2.96243 117.802 -0.633763 121.374 -3.44488 124.046L3.44488 131.294C6.39307 128.491 10.2454 124.67 14.266 120.003L6.68956 113.476ZM0.825971 132.601C3.64604 132.129 6.36514 130.945 8.95212 129.32L3.63232 120.852C1.83057 121.984 0.352445 122.541 -0.825971 122.738L0.825971 132.601ZM8.95156 129.32C13.7166 126.327 18.2785 121.623 21.9761 116.695L13.977 110.694C10.7118 115.046 7.00584 118.733 3.63288 120.852L8.95156 129.32ZM21.9762 116.695C25.6927 111.741 28.7751 106.262 30.6225 101.574L21.319 97.9075C19.8385 101.664 17.2232 106.367 13.9769 110.694L21.9762 116.695ZM30.6225 101.574C31.5426 99.2397 32.2161 96.9348 32.4831 94.977L22.5748 93.6258C22.4521 94.5256 22.0631 96.0195 21.319 97.9075L30.6225 101.574ZM32.4833 94.9753C32.6366 93.8488 32.6264 92.8697 32.5442 92.0807C32.5035 91.6892 32.4431 91.3266 32.3686 91.0003C32.3321 90.8401 32.2855 90.6599 32.226 90.4711C32.219 90.4486 32.0624 89.9067 31.7188 89.3337L23.1426 94.4767C23.0182 94.2693 22.9355 94.0963 22.893 94.0039C22.8451 93.8997 22.8094 93.8122 22.7855 93.751C22.7381 93.63 22.7062 93.5331 22.6879 93.4751C22.6504 93.356 22.6294 93.2696 22.6196 93.2264C22.5984 93.1339 22.596 93.0974 22.598 93.1161C22.6013 93.1477 22.6156 93.3258 22.5746 93.6274L32.4833 94.9753ZM31.7183 89.333C27.3853 82.1102 23.271 75.3221 20.8565 68.4302L11.4189 71.7365C14.2392 79.7866 18.9607 87.5057 23.1431 94.4774L31.7183 89.333ZM20.8565 68.4302C18.494 61.6865 18.008 55.2222 20.6954 49.103L11.5395 45.0819C7.49509 54.2909 8.54674 63.5381 11.4189 71.7365L20.8565 68.4302ZM20.6954 49.103C26.7917 35.222 39.5619 28.4887 52.8384 27.3582L51.9899 17.3943C35.983 18.7573 19.4448 27.0819 11.5395 45.0819L20.6954 49.103ZM52.8384 27.3582C66.3211 26.2101 79.494 30.5981 86.6924 38.157L93.934 31.2607C84.1559 20.9929 67.7118 16.0555 51.9899 17.3943L52.8384 27.3582ZM86.8526 38.3178L93.3175 44.5169L100.239 37.299L93.7738 31.0999L86.8526 38.3178ZM99.335 45.2047L118.557 33.7658L113.443 25.1723L94.2211 36.6112L99.335 45.2047ZM119.947 26.3993C113.778 18.4677 103.408 10.0272 91.5608 3.98116L87.015 12.8882C97.7892 18.3869 106.931 25.9537 112.053 32.5388L119.947 26.3993ZM91.5607 3.98108C81.79 -1.00507 70.7684 -4.51774 60.0198 -4.95431L59.614 5.03745C68.5598 5.4008 78.1639 8.37136 87.0151 12.8883L91.5607 3.98108ZM60.0184 -4.95437C59.12 -4.9906 58.2206 -5.00589 57.3214 -4.99796L57.4096 5.00165C58.1369 4.99524 58.8723 5.00754 59.6154 5.03751L60.0184 -4.95437ZM62.3655 0.0018485V0.00129661H52.3655V0.0018485H62.3655ZM93.8373 31.1618L93.8211 31.1458L86.773 38.2398L86.7892 38.2558L93.8373 31.1618ZM86.7555 38.2223L86.8416 38.3086L93.9247 31.2497L93.8387 31.1634L86.7555 38.2223ZM93.9901 31.3165C93.958 31.283 93.9308 31.2555 93.9136 31.2382C93.9049 31.2294 93.8974 31.2219 93.8925 31.2171C93.8901 31.2146 93.8878 31.2123 93.8863 31.2109C93.8846 31.2092 93.8838 31.2084 93.8831 31.2076C93.8817 31.2062 93.883 31.2075 93.8855 31.2101C93.8882 31.2128 93.8932 31.2179 93.8999 31.2246C93.9127 31.2377 93.9355 31.2612 93.9641 31.2917L86.6634 38.1254C86.7031 38.1678 86.7372 38.203 86.7616 38.2278C86.7852 38.2519 86.8052 38.2719 86.8132 38.2799C86.826 38.2927 86.8205 38.2872 86.8178 38.2845C86.8123 38.2789 86.7968 38.2633 86.7762 38.2418L93.9901 31.3165ZM88.0888 30.2309L88.0883 30.2312L92.5382 39.1865L92.5387 39.1862L88.0888 30.2309ZM54.6901 22.2007C53.9512 22.231 53.1905 22.2744 52.4155 22.3407L53.2671 32.3043C53.8605 32.2536 54.4692 32.2182 55.1004 32.1922L54.6901 22.2007ZM52.4174 22.3405C51.3174 22.4341 50.2299 22.5638 49.157 22.7224L50.6192 32.6149C51.5059 32.4839 52.3879 32.3792 53.2653 32.3045L52.4174 22.3405ZM44.9997 28.7193L47.6721 41.1531L57.4488 39.0519L54.7765 26.6181L44.9997 28.7193ZM53.9195 44.9143C55.2669 44.5337 56.653 44.2561 58.0684 44.0821L56.848 34.1568C54.9388 34.3916 53.0514 34.7682 51.2014 35.2908L53.9195 44.9143ZM62.3466 38.0688L59.7839 26.1455L50.0072 28.2468L52.5698 40.1701L62.3466 38.0688ZM51.3845 23.6363L51.3842 23.6366L58.4063 30.7563L58.4065 30.7561L51.3845 23.6363ZM62.3941 26.4245C60.8398 30.502 60.0137 34.7577 60.1312 39.109L70.1275 38.8392C70.0495 35.9503 70.5913 32.9951 71.7382 29.9864L62.3941 26.4245ZM64.7353 43.9585C66.207 44.0749 67.6889 44.2826 69.1721 44.5811L71.1452 34.7777C69.2788 34.402 67.4012 34.1381 65.5234 33.9896L64.7353 43.9585ZM75.1459 39.322C74.9671 36.8273 75.3996 34.2154 76.5582 31.3574L67.2908 27.6006C65.6427 31.666 64.8684 35.8066 65.1715 40.0367L75.1459 39.322ZM73.4465 24.7163C71.7043 24.1595 69.9109 23.6903 68.0847 23.3103L66.0475 33.1006C67.5459 33.4124 69.0027 33.7944 70.4025 34.2417L73.4465 24.7163ZM35.25 26.9718C33.3204 27.9218 31.4593 29.0248 29.684 30.2798L35.4565 38.4455C36.7964 37.4982 38.2038 36.6638 39.6671 35.9433L35.25 26.9718ZM30.3276 38.8315C34.1288 40.739 36.4683 43.5583 37.4162 46.72L46.995 43.8481C45.159 37.7247 40.7539 32.8752 34.8128 29.8938L30.3276 38.8315ZM45.2639 49.2397C46.3974 48.3633 47.6 47.5954 48.8606 46.9296L44.1904 38.0871C42.4429 39.0101 40.7538 40.0864 39.1474 41.3284L45.2639 49.2397ZM51.2011 40.7366C49.0961 35.1815 45.1939 30.5576 40.2043 27.279L34.7128 35.6361C38.0993 37.8615 40.5565 40.8667 41.8499 44.2801L51.2011 40.7366ZM61.9299 38.8139C61.5575 38.8132 61.1873 38.8184 60.8192 38.8289L61.1045 48.8248C61.3741 48.8171 61.6435 48.8134 61.9127 48.8139L61.9299 38.8139ZM60.8207 38.8288C59.9663 38.853 59.1134 38.9058 58.2647 38.9894L59.2447 48.9412C59.8525 48.8814 60.4724 48.8427 61.1029 48.8248L60.8207 38.8288ZM58.2629 38.9895C51.5449 39.6535 45.0814 42.0977 39.8776 46.9896C34.6715 51.8837 31.102 58.8736 29.5469 67.967L39.4038 69.6526C40.6701 62.2477 43.4126 57.3914 46.7269 54.2757C50.0435 51.1579 54.309 49.429 59.2464 48.9411L58.2629 38.9895ZM29.5468 67.9674C29.0731 70.7392 29.5594 74.4979 30.2092 77.8595C30.9036 81.4523 31.9607 85.4226 33.1153 89.0062L42.6334 85.9395C41.5806 82.6718 40.6331 79.0953 40.0274 75.9617C39.377 72.5969 39.2676 70.4497 39.4039 69.6522L29.5468 67.9674ZM33.1152 89.0061C34.2553 92.5446 35.4433 95.7744 36.344 98.1151C36.7953 99.2878 37.1767 100.243 37.447 100.909C37.5822 101.243 37.6897 101.504 37.7644 101.684C37.8018 101.774 37.831 101.844 37.8513 101.893C37.8615 101.917 37.8695 101.936 37.8752 101.95C37.878 101.956 37.8803 101.962 37.882 101.966C37.8828 101.968 37.8835 101.969 37.8841 101.971C37.8844 101.971 37.8846 101.972 37.8848 101.972C37.8849 101.973 37.885 101.973 37.8851 101.973C37.8852 101.973 37.8853 101.974 42.4912 100.028C47.0971 98.0824 47.0972 98.0826 47.0973 98.0828C47.0973 98.0828 47.0974 98.083 47.0974 98.083C47.0975 98.0832 47.0975 98.0832 47.0975 98.0832C47.0974 98.0831 47.0973 98.0827 47.0969 98.0819C47.0963 98.0804 47.0951 98.0775 47.0933 98.0732C47.0897 98.0648 47.0839 98.0509 47.0759 98.0317C47.0599 97.9935 47.0351 97.9342 47.0023 97.8549C46.9366 97.6965 46.8386 97.4585 46.7134 97.1499C46.4629 96.5324 46.1039 95.6334 45.6769 94.5237C44.8209 92.2994 43.7005 89.2517 42.6334 85.9395L33.1152 89.0061ZM37.8868 101.977L38.0267 102.308L47.2355 98.4092L47.0956 98.0788L37.8868 101.977ZM37.6617 100.911L37.7014 101.268L47.6402 100.164L47.6005 99.8063L37.6617 100.911ZM37.7015 101.269C37.8355 102.471 37.5588 103.927 36.6607 105.849C35.7479 107.803 34.3768 109.864 32.6952 112.252L40.8714 118.01C42.5487 115.628 44.3934 112.923 45.7206 110.082C47.0626 107.21 48.0501 103.842 47.64 100.162L37.7015 101.269ZM32.6948 112.253C30.5584 115.287 28.3201 118.102 26.2049 120.783L34.0555 126.977C36.1259 124.353 38.5472 121.311 40.8717 118.009L32.6948 112.253ZM30.4093 128.873C38.4813 128.421 45.6058 124.848 52.0963 119.082L45.4551 111.606C40.1693 116.301 35.1018 118.595 29.8511 118.888L30.4093 128.873ZM53.6269 114.133C53.6151 114.086 53.6074 114.054 53.5965 114.009C53.5846 113.959 53.5684 113.891 53.545 113.796L43.8326 116.177C43.8427 116.218 43.8968 116.444 43.9244 116.555L53.6269 114.133ZM53.548 113.808C53.3386 112.945 53.1736 112.091 53.2155 111.162L43.2256 110.712C43.1187 113.084 43.5582 115.045 43.8296 116.164L53.548 113.808ZM53.2155 111.162C53.2663 110.032 53.8827 108.066 56.4418 106.148L50.4455 98.1453C45.7081 101.695 43.4224 106.335 43.2256 110.712L53.2155 111.162ZM57.5279 99.2625C51.6726 90.971 50.4817 80.3179 51.7212 71.0833L41.81 69.7531C40.3639 80.5276 41.5716 94.0029 49.3594 105.031L57.5279 99.2625ZM51.7213 71.0826L51.9672 69.2483L42.0559 67.9195L41.8099 69.7538L51.7213 71.0826ZM47.7893 73.523L49.6284 73.2334L48.0728 63.3551L46.2337 63.6448L47.7893 73.523ZM49.6273 73.2336C66.8173 70.5306 78.1475 64.7975 90.1252 57.5065L84.9256 48.9646C73.5363 55.8974 63.4774 60.9329 48.0739 63.355L49.6273 73.2336ZM90.622 49.3099C82.1839 42.6538 71.7809 38.8272 61.9277 38.8136L61.9139 48.8136C69.298 48.8238 77.5647 51.7468 84.4288 57.1613L90.622 49.3099ZM59.6685 48.2776L59.669 48.2779L64.1736 39.3499L64.173 39.3496L59.6685 48.2776ZM92.6289 50.014C79.3158 58.3519 68.0171 64.8563 50.686 67.9046L52.4182 77.7534C71.7224 74.3581 84.3691 66.9864 97.9368 58.489L92.6289 50.014ZM46.5759 72.3414C45.597 82.3319 47.2303 94.3913 54.6346 103.738L62.4729 97.5278C57.2211 90.8987 55.7013 81.7563 56.5282 73.3166L46.5759 72.3414ZM58.3136 105.627C60.2298 105.719 61.8146 106.666 62.8071 108.033L70.9005 102.16C68.207 98.4485 63.8759 95.8828 58.7939 95.6384L58.3136 105.627ZM62.8074 108.034C63.9514 109.61 64.6677 111.859 64.8724 114.728L74.8471 114.017C74.5611 110.009 73.5015 105.743 70.9002 102.16L62.8074 108.034ZM66.4858 118.063C70.1882 121.448 75.0031 124.374 79.8646 126.984C84.6975 129.579 90.0978 132.125 94.746 134.466L99.2437 125.534C94.2345 123.012 89.2992 120.699 84.5948 118.174C79.919 115.663 75.995 113.207 73.2337 110.683L66.4858 118.063ZM101.979 129.597C101.768 126.987 101.656 124.404 101.545 121.748C101.435 119.123 101.325 116.411 101.115 113.702C100.691 108.253 99.8464 102.58 97.6345 96.7507L88.2849 100.298C90.026 104.887 90.7588 109.512 91.1447 114.477C91.3388 116.974 91.4418 119.498 91.5534 122.166C91.6638 124.804 91.7822 127.573 92.0111 130.403L101.979 129.597ZM94.8171 93.8822L77.3748 86.9036L73.6601 96.188L91.1023 103.167L94.8171 93.8822ZM77.5036 86.9572L77.4863 86.9497L73.5142 96.127L73.5314 96.1344L77.5036 86.9572ZM77.428 86.9249C74.0281 85.5043 73.1523 84.181 72.914 83.4185L63.3693 86.4016C64.8963 91.2871 69.0271 94.2525 73.5725 96.1518L77.428 86.9249ZM72.9139 83.4182C72.4849 82.0457 72.7283 80.7795 73.3862 77.2604L63.5566 75.4226C63.0698 78.0259 62.0332 82.1275 63.3694 86.4019L72.9139 83.4182ZM73.3864 77.2595L73.997 73.9903L64.167 72.1542L63.5564 75.4235L73.3864 77.2595ZM66.822 77.5324L69.803 79.0429L74.323 70.1227L71.342 68.6122L66.822 77.5324ZM69.8022 79.0424C76.7785 82.579 85.3613 85.2604 93.6734 85.1166L93.5005 75.1181C87.2942 75.2254 80.341 73.1734 74.3238 70.1231L69.8022 79.0424ZM93.6745 85.1166L95.5014 85.0846L95.3263 75.0862L93.4994 75.1182L93.6745 85.1166ZM90.6789 81.6917L91.2626 83.4123L100.733 80.1998L100.149 78.4791L90.6789 81.6917ZM91.2624 83.4116C94.0027 91.4935 94.605 97.9114 95.4005 105.035L105.339 103.926C104.558 96.9319 103.873 89.4609 100.733 80.2005L91.2624 83.4116ZM98.5236 109.127L100.685 109.986L104.377 100.693L102.216 99.8338L98.5236 109.127ZM107.482 106.039C108.725 97.2444 108.039 85.8515 106.394 75.7328L96.5238 77.3374C98.0841 86.9349 98.6278 97.2259 97.5802 104.64L107.482 106.039ZM106.394 75.7329C104.835 66.1427 102.163 57.0201 99.7888 52.0838L90.7769 56.4181C92.5839 60.175 95.0502 68.2717 96.5238 77.3374L106.394 75.7329ZM90.2829 54.2509V54.2515H100.283V54.2509H90.2829ZM43.9521 115.957C43.9473 116.166 43.9524 116.441 43.9914 116.756C44.0088 116.895 44.0472 117.164 44.1374 117.49C44.1778 117.636 44.2726 117.958 44.4572 118.339C44.5488 118.529 44.7229 118.86 45.0082 119.228C45.25 119.54 45.86 120.258 46.9299 120.734C48.2497 121.32 49.8852 121.349 51.3403 120.562C52.5227 119.922 53.1047 118.999 53.3275 118.6C53.7764 117.796 53.8813 117.068 53.9035 116.924C53.9785 116.439 53.9634 116.052 53.9577 115.924C53.9421 115.571 53.8926 115.278 53.853 115.083L44.0542 117.079C44.0262 116.941 43.9819 116.691 43.9675 116.366C43.9624 116.252 43.9469 115.875 44.021 115.396C44.0426 115.256 44.1468 114.53 44.595 113.727C44.8174 113.329 45.3989 112.407 46.5809 111.767C48.0356 110.98 49.6706 111.009 50.9899 111.595C52.0593 112.07 52.6687 112.788 52.9101 113.099C53.1948 113.467 53.3684 113.797 53.4595 113.985C53.6429 114.365 53.7365 114.683 53.7759 114.825C53.8637 115.143 53.8999 115.4 53.9153 115.523C53.9504 115.807 53.9529 116.035 53.9495 116.183L43.9521 115.957ZM53.8025 114.861C53.7847 114.791 53.7692 114.736 53.7654 114.722C53.7599 114.703 53.7552 114.687 53.755 114.686C53.7511 114.672 53.7599 114.703 53.7685 114.733C53.7754 114.758 53.8001 114.847 53.8264 114.962C53.8396 115.02 53.863 115.128 53.8853 115.264C53.8967 115.334 53.9114 115.432 53.9238 115.552C53.9355 115.664 53.9508 115.845 53.9508 116.07H43.9508C43.9508 116.295 43.9661 116.477 43.9778 116.589C43.9903 116.709 44.005 116.808 44.0165 116.878C44.0389 117.015 44.0625 117.123 44.0759 117.182C44.1026 117.3 44.128 117.391 44.1355 117.418C44.1447 117.451 44.1542 117.483 44.1508 117.471C44.1505 117.47 44.1494 117.467 44.148 117.462C44.1466 117.457 44.1442 117.448 44.1412 117.438C44.1376 117.425 44.1223 117.371 44.1047 117.301L53.8025 114.861Z" fill="white" mask="url(#path-1-inside-1_8_37)"/>
</svg>
