<svg width="501" height="100" viewBox="0 0 501 100" fill="none" xmlns="http://www.w3.org/2000/svg">
<path d="M95.6068 94.8702H21.8025L36.5339 80.1388H80.7281V35.9446L95.4594 21.2132L95.6068 94.8702Z" stroke="white" stroke-width="3"/>
<path d="M4.12493 4.71404L77.9292 4.71404L63.1978 19.4454L19.0036 19.4454L19.0036 63.6396L4.27224 78.371L4.12493 4.71404Z" fill="white" fill-opacity="0.3" stroke="white" stroke-width="3"/>
<rect x="2.12132" y="89.5833" width="123.69" height="11.7314" transform="rotate(-45 2.12132 89.5833)" fill="white" fill-opacity="0.1" stroke="white" stroke-width="3"/>
<path d="M136.57 65.1562C135.216 65.1562 133.107 65.1172 130.242 65.0391C128.81 64.987 127.508 64.9479 126.336 64.9219C125.164 64.8958 124.135 64.8958 123.25 64.9219L118.523 65.0391C118.445 64.9609 118.406 64.7526 118.406 64.4141C118.406 64.0755 118.445 63.9062 118.523 63.9062C118.784 63.9062 119.096 63.8672 119.461 63.7891C119.852 63.7109 120.216 63.6198 120.555 63.5156C120.919 63.3854 121.141 63.2422 121.219 63.0859C121.401 62.7995 121.492 61.5755 121.492 59.4141V44.6484C121.492 42.9297 121.401 41.7448 121.219 41.0938C121.167 40.9375 120.971 40.8073 120.633 40.7031C120.294 40.5729 119.93 40.4688 119.539 40.3906C119.148 40.3125 118.836 40.2734 118.602 40.2734C118.497 40.2734 118.445 40.1042 118.445 39.7656C118.445 39.4531 118.497 39.2448 118.602 39.1406C118.836 39.1406 119.227 39.1667 119.773 39.2188C120.346 39.2448 120.958 39.2839 121.609 39.3359C122.26 39.362 122.82 39.375 123.289 39.375C124.122 39.375 124.956 39.349 125.789 39.2969C126.622 39.2188 127.299 39.1667 127.82 39.1406C127.872 39.349 127.898 39.5443 127.898 39.7266C127.898 40.0911 127.846 40.2734 127.742 40.2734C127.586 40.2734 127.312 40.3255 126.922 40.4297C126.531 40.5078 126.167 40.612 125.828 40.7422C125.49 40.8464 125.294 40.9635 125.242 41.0938C125.008 41.9792 124.891 43.1901 124.891 44.7266V59.4531C124.891 60.8333 125.008 61.9792 125.242 62.8906C125.32 63.151 126.206 63.2812 127.898 63.2812H129.773C132.169 63.2812 133.81 63.0599 134.695 62.6172C135.086 62.4089 135.516 61.9531 135.984 61.25C136.479 60.5208 136.87 59.6615 137.156 58.6719C137.208 58.5156 137.391 58.4375 137.703 58.4375C138.198 58.4375 138.523 58.5156 138.68 58.6719C138.602 58.8802 138.471 59.2057 138.289 59.6484C138.133 60.0651 137.977 60.4948 137.82 60.9375C137.664 61.3802 137.534 61.7578 137.43 62.0703C137.273 62.5391 137.104 63.0729 136.922 63.6719C136.74 64.2708 136.622 64.7656 136.57 65.1562ZM148.523 65.2344C147.091 65.2344 145.776 64.8568 144.578 64.1016C143.38 63.3464 142.417 62.3438 141.688 61.0938C140.984 59.8177 140.633 58.3984 140.633 56.8359C140.633 55.013 140.971 53.4375 141.648 52.1094C142.326 50.7812 143.25 49.7656 144.422 49.0625C145.594 48.3333 146.909 47.9688 148.367 47.9688C149.565 47.9688 150.62 48.2031 151.531 48.6719C152.443 49.1146 153.146 49.6875 153.641 50.3906C154.109 51.1198 154.448 51.862 154.656 52.6172C154.891 53.3464 155.008 54.0755 155.008 54.8047C155.008 55.3255 154.93 55.651 154.773 55.7812C154.617 55.8854 154.318 55.9375 153.875 55.9375H144.031C143.823 55.9375 143.719 56.0026 143.719 56.1328C143.719 57.2266 143.94 58.2812 144.383 59.2969C144.826 60.2865 145.477 61.1068 146.336 61.7578C147.195 62.4089 148.25 62.7344 149.5 62.7344C150.594 62.7344 151.505 62.5781 152.234 62.2656C152.99 61.9271 153.536 61.6276 153.875 61.3672L154.148 61.1719C154.305 61.1719 154.383 61.3411 154.383 61.6797C154.383 61.862 154.305 62.0964 154.148 62.3828C153.628 63.112 152.859 63.776 151.844 64.375C150.828 64.9479 149.721 65.2344 148.523 65.2344ZM144.031 54.2969H151.648C151.779 54.2969 151.844 54.1667 151.844 53.9062C151.844 53.3333 151.688 52.7083 151.375 52.0312C151.089 51.3281 150.646 50.7161 150.047 50.1953C149.448 49.6745 148.693 49.4141 147.781 49.4141C146.948 49.4141 146.232 49.7005 145.633 50.2734C145.034 50.8203 144.578 51.4583 144.266 52.1875C143.953 52.8906 143.797 53.5026 143.797 54.0234C143.797 54.2057 143.875 54.2969 144.031 54.2969ZM161.648 65.2734C160.451 65.2734 159.461 64.9609 158.68 64.3359C157.898 63.6849 157.508 62.7214 157.508 61.4453C157.508 59.8828 158.523 58.5807 160.555 57.5391C161.44 57.0964 162.312 56.7448 163.172 56.4844C164.057 56.224 164.943 55.9245 165.828 55.5859C166.062 55.5078 166.18 55.3125 166.18 55V52.0703C166.18 51.237 165.919 50.599 165.398 50.1562C164.878 49.6875 164.253 49.4531 163.523 49.4531C162.742 49.4531 162.091 49.7266 161.57 50.2734C161.049 50.7943 160.789 51.4844 160.789 52.3438C160.789 53.2552 160.255 53.7109 159.188 53.7109C158.432 53.7109 157.924 53.4635 157.664 52.9688C157.664 52.4219 157.885 51.862 158.328 51.2891C158.797 50.6901 159.396 50.1432 160.125 49.6484C160.854 49.1536 161.648 48.75 162.508 48.4375C163.393 48.125 164.266 47.9688 165.125 47.9688C166.557 47.9688 167.586 48.3203 168.211 49.0234C168.836 49.7005 169.148 50.8073 169.148 52.3438V61.3672C169.148 61.9141 169.292 62.3698 169.578 62.7344C169.865 63.099 170.255 63.2812 170.75 63.2812C171.089 63.2812 171.544 63.099 172.117 62.7344C172.221 62.7344 172.273 62.8385 172.273 63.0469C172.273 63.3854 172.208 63.6589 172.078 63.8672C171.01 64.7786 170.099 65.2344 169.344 65.2344C168.745 65.2344 168.172 64.987 167.625 64.4922C167.078 63.9974 166.701 63.4766 166.492 62.9297C166.362 63.0339 166.193 63.1771 165.984 63.3594C165.802 63.5156 165.646 63.6458 165.516 63.75C164.969 64.1667 164.37 64.5312 163.719 64.8438C163.094 65.1302 162.404 65.2734 161.648 65.2734ZM163.133 63.0469C163.862 63.0469 164.552 62.8385 165.203 62.4219C165.854 62.0052 166.18 61.5625 166.18 61.0938V57.0703C165.503 57.3307 164.852 57.5651 164.227 57.7734C163.628 57.9818 163.146 58.151 162.781 58.2812C162.312 58.4635 161.857 58.7891 161.414 59.2578C160.997 59.7266 160.789 60.2604 160.789 60.8594C160.789 61.6406 161.023 62.2005 161.492 62.5391C161.987 62.8776 162.534 63.0469 163.133 63.0469ZM180.828 73.8672C179.604 73.8672 178.432 73.7109 177.312 73.3984C176.219 73.0859 175.333 72.6042 174.656 71.9531C173.979 71.3021 173.641 70.4948 173.641 69.5312C173.641 67.9167 174.917 66.5365 177.469 65.3906C176.766 65.2865 176.115 64.9609 175.516 64.4141C174.917 63.8672 174.617 63.2031 174.617 62.4219C174.617 61.7448 174.904 61.0417 175.477 60.3125C176.076 59.5833 176.74 58.9844 177.469 58.5156C176.948 58.3073 176.44 57.9557 175.945 57.4609C175.477 56.9661 175.086 56.3802 174.773 55.7031C174.461 55.026 174.305 54.3229 174.305 53.5938C174.305 52.5521 174.604 51.6276 175.203 50.8203C175.802 49.987 176.596 49.3359 177.586 48.8672C178.602 48.3724 179.734 48.125 180.984 48.125C182 48.125 183.107 48.2943 184.305 48.6328C185.503 48.9714 186.531 49.1406 187.391 49.1406H189.656C189.812 49.1667 189.891 49.4922 189.891 50.1172C189.891 50.4818 189.812 50.6641 189.656 50.6641H186.883C186.779 50.6641 186.727 50.7031 186.727 50.7812L187.117 51.7188C187.404 52.3698 187.547 52.9948 187.547 53.5938C187.547 54.5312 187.26 55.4167 186.688 56.25C186.115 57.0833 185.333 57.7604 184.344 58.2812C183.38 58.8021 182.286 59.0625 181.062 59.0625C180.646 59.0625 180.255 59.0495 179.891 59.0234C179.526 58.9974 179.188 58.9583 178.875 58.9062C178.38 59.2708 177.977 59.6484 177.664 60.0391C177.378 60.4297 177.234 60.8203 177.234 61.2109C177.234 61.862 177.599 62.2786 178.328 62.4609C179.057 62.6432 179.995 62.7344 181.141 62.7344C182.755 62.7604 184.122 62.8646 185.242 63.0469C186.388 63.2031 187.286 63.4245 187.938 63.7109C189.24 64.3359 189.891 65.2604 189.891 66.4844C189.891 67.8125 189.5 69.0365 188.719 70.1562C187.964 71.276 186.896 72.1615 185.516 72.8125C184.161 73.4896 182.599 73.8411 180.828 73.8672ZM181.023 57.7344C182.039 57.7344 182.872 57.3438 183.523 56.5625C184.201 55.7812 184.539 54.8438 184.539 53.75C184.539 52.5521 184.161 51.5365 183.406 50.7031C182.677 49.8698 181.818 49.4531 180.828 49.4531C179.812 49.4531 178.966 49.8438 178.289 50.625C177.638 51.4062 177.312 52.3438 177.312 53.4375C177.312 54.6354 177.677 55.651 178.406 56.4844C179.161 57.3177 180.034 57.7344 181.023 57.7344ZM181.961 72.4219C183.003 72.4219 183.927 72.2266 184.734 71.8359C185.542 71.4453 186.167 70.9375 186.609 70.3125C187.078 69.6875 187.312 69.0234 187.312 68.3203C187.312 67.2266 186.779 66.4974 185.711 66.1328C184.669 65.7422 182.599 65.5469 179.5 65.5469C179.292 65.5469 178.927 65.6641 178.406 65.8984C177.911 66.1328 177.443 66.4714 177 66.9141C176.583 67.3828 176.375 67.9688 176.375 68.6719C176.375 69.401 176.648 70.0521 177.195 70.625C177.742 71.1979 178.432 71.6406 179.266 71.9531C180.125 72.2656 181.023 72.4219 181.961 72.4219ZM205.359 65.3125C205.151 65.3125 205.047 65.1042 205.047 64.6875V62.6953C205.047 62.5651 205.021 62.5 204.969 62.5C203.25 64.349 201.544 65.2734 199.852 65.2734C198.628 65.2734 197.651 64.9219 196.922 64.2188C196.219 63.4896 195.711 62.5781 195.398 61.4844C195.112 60.3646 194.969 59.2057 194.969 58.0078V53.0859C194.969 52.0964 194.786 51.3932 194.422 50.9766C194.161 50.6641 193.849 50.4557 193.484 50.3516C193.146 50.2474 192.833 50.1953 192.547 50.1953C192.286 50.1693 192.156 50.1302 192.156 50.0781C192.156 49.4531 192.234 49.1276 192.391 49.1016C193.771 48.8932 194.878 48.7109 195.711 48.5547C196.57 48.3724 197.065 48.2682 197.195 48.2422L197.977 48.0469C198.081 48.0208 198.146 48.125 198.172 48.3594C198.198 48.5938 198.198 48.763 198.172 48.8672C198.016 50.1172 197.938 51.0807 197.938 51.7578V57.0312C197.938 59.0365 198.237 60.5208 198.836 61.4844C199.435 62.4219 200.411 62.8906 201.766 62.8906C202.286 62.8906 202.794 62.7474 203.289 62.4609C203.81 62.1745 204.227 61.8359 204.539 61.4453C204.878 61.0286 205.047 60.6771 205.047 60.3906V53.0859C205.047 52.0964 204.865 51.3932 204.5 50.9766C204.24 50.6641 203.927 50.4557 203.562 50.3516C203.224 50.2474 202.911 50.1823 202.625 50.1562C202.365 50.1302 202.234 50.1042 202.234 50.0781C202.234 49.4531 202.312 49.1276 202.469 49.1016C203.849 48.8932 204.878 48.724 205.555 48.5938C206.258 48.4635 206.818 48.3464 207.234 48.2422L208.055 48.0469C208.159 48.0208 208.224 48.125 208.25 48.3594C208.276 48.5938 208.276 48.763 208.25 48.8672C208.094 50.1172 208.016 51.0547 208.016 51.6797V59.4922C208.016 60.6641 208.107 61.6536 208.289 62.4609C208.367 62.7214 208.576 62.8906 208.914 62.9688C209.253 63.0208 209.643 63.0729 210.086 63.125L210.594 63.1641C210.672 63.1901 210.711 63.3333 210.711 63.5938C210.711 63.6719 210.672 63.8021 210.594 63.9844C210.542 64.1406 210.477 64.2188 210.398 64.2188C209.617 64.2708 208.758 64.4141 207.82 64.6484C206.883 64.8568 206.18 65.0521 205.711 65.2344L205.359 65.3125ZM220.555 65.2344C219.122 65.2344 217.807 64.8568 216.609 64.1016C215.411 63.3464 214.448 62.3438 213.719 61.0938C213.016 59.8177 212.664 58.3984 212.664 56.8359C212.664 55.013 213.003 53.4375 213.68 52.1094C214.357 50.7812 215.281 49.7656 216.453 49.0625C217.625 48.3333 218.94 47.9688 220.398 47.9688C221.596 47.9688 222.651 48.2031 223.562 48.6719C224.474 49.1146 225.177 49.6875 225.672 50.3906C226.141 51.1198 226.479 51.862 226.688 52.6172C226.922 53.3464 227.039 54.0755 227.039 54.8047C227.039 55.3255 226.961 55.651 226.805 55.7812C226.648 55.8854 226.349 55.9375 225.906 55.9375H216.062C215.854 55.9375 215.75 56.0026 215.75 56.1328C215.75 57.2266 215.971 58.2812 216.414 59.2969C216.857 60.2865 217.508 61.1068 218.367 61.7578C219.227 62.4089 220.281 62.7344 221.531 62.7344C222.625 62.7344 223.536 62.5781 224.266 62.2656C225.021 61.9271 225.568 61.6276 225.906 61.3672L226.18 61.1719C226.336 61.1719 226.414 61.3411 226.414 61.6797C226.414 61.862 226.336 62.0964 226.18 62.3828C225.659 63.112 224.891 63.776 223.875 64.375C222.859 64.9479 221.753 65.2344 220.555 65.2344ZM216.062 54.2969H223.68C223.81 54.2969 223.875 54.1667 223.875 53.9062C223.875 53.3333 223.719 52.7083 223.406 52.0312C223.12 51.3281 222.677 50.7161 222.078 50.1953C221.479 49.6745 220.724 49.4141 219.812 49.4141C218.979 49.4141 218.263 49.7005 217.664 50.2734C217.065 50.8203 216.609 51.4583 216.297 52.1875C215.984 52.8906 215.828 53.5026 215.828 54.0234C215.828 54.2057 215.906 54.2969 216.062 54.2969ZM246.961 65.2734C245.398 65.2734 243.966 64.8828 242.664 64.1016C241.362 63.3203 240.32 62.2656 239.539 60.9375C238.784 59.6094 238.406 58.151 238.406 56.5625C238.406 54.9479 238.771 53.4896 239.5 52.1875C240.255 50.8854 241.271 49.8568 242.547 49.1016C243.823 48.3203 245.268 47.9297 246.883 47.9297C248.445 47.9297 249.865 48.3203 251.141 49.1016C252.443 49.8828 253.471 50.9245 254.227 52.2266C255.008 53.5286 255.398 54.974 255.398 56.5625C255.398 58.151 255.021 59.6094 254.266 60.9375C253.51 62.2656 252.495 63.3203 251.219 64.1016C249.969 64.8828 248.549 65.2734 246.961 65.2734ZM247.312 63.75C248.25 63.75 249.07 63.4505 249.773 62.8516C250.477 62.2526 251.023 61.4453 251.414 60.4297C251.831 59.4141 252.039 58.3073 252.039 57.1094C252.039 55.7031 251.779 54.4271 251.258 53.2812C250.737 52.1094 250.047 51.1849 249.188 50.5078C248.354 49.8047 247.443 49.4531 246.453 49.4531C245.542 49.4531 244.721 49.7526 243.992 50.3516C243.289 50.9245 242.742 51.7057 242.352 52.6953C241.961 53.6589 241.766 54.7526 241.766 55.9766C241.766 57.3828 242.013 58.6849 242.508 59.8828C243.029 61.0547 243.706 61.9922 244.539 62.6953C245.398 63.3984 246.323 63.75 247.312 63.75ZM258.055 65.1172C257.977 65.0391 257.924 64.8307 257.898 64.4922C257.898 64.1536 257.951 63.9844 258.055 63.9844C258.263 63.9844 258.536 63.9453 258.875 63.8672C259.214 63.7891 259.526 63.6849 259.812 63.5547C260.125 63.4245 260.294 63.3073 260.32 63.2031C260.451 62.6823 260.542 62.1354 260.594 61.5625C260.672 60.9896 260.711 60.3776 260.711 59.7266V50.7422C260.711 50.5599 260.646 50.4688 260.516 50.4688H258.445C258.367 50.4688 258.328 50.3906 258.328 50.2344C258.328 50 258.523 49.6745 258.914 49.2578C259.331 48.8411 259.786 48.6328 260.281 48.6328H260.516C260.646 48.6328 260.711 48.5547 260.711 48.3984V47.8906C260.711 46.5104 260.932 45.2214 261.375 44.0234C261.818 42.8255 262.404 41.7578 263.133 40.8203C263.888 39.8828 264.721 39.1536 265.633 38.6328C266.57 38.112 267.521 37.8516 268.484 37.8516C270.385 37.8516 271.622 38.3594 272.195 39.375C272.195 41.0156 271.727 41.8359 270.789 41.8359C270.503 41.8359 270.242 41.7188 270.008 41.4844C269.773 41.224 269.526 40.9375 269.266 40.625C269.031 40.2865 268.745 40 268.406 39.7656C268.094 39.5052 267.716 39.375 267.273 39.375C266.518 39.375 265.867 39.7005 265.32 40.3516C264.773 41.0026 264.357 41.862 264.07 42.9297C263.81 43.9974 263.68 45.1693 263.68 46.4453V48.4375C263.68 48.5677 263.745 48.6328 263.875 48.6328H268.211C268.341 48.6328 268.406 48.724 268.406 48.9062C268.406 49.3229 268.25 49.8438 267.938 50.4688H263.914C263.758 50.4688 263.68 50.5469 263.68 50.7031V59.7266C263.68 61.1328 263.797 62.2917 264.031 63.2031C264.083 63.3073 264.253 63.4245 264.539 63.5547C264.826 63.6849 265.138 63.7891 265.477 63.8672C265.815 63.9453 266.062 63.9844 266.219 63.9844C266.297 63.9844 266.349 64.1406 266.375 64.4531C266.401 64.7656 266.388 64.987 266.336 65.1172L262.156 64.9219L258.055 65.1172ZM287.195 65.3906C286.57 65.3906 285.906 65.3385 285.203 65.2344C284.5 65.1562 283.914 65.0651 283.445 64.9609C282.482 64.7786 281.779 64.6354 281.336 64.5312C280.919 64.401 280.529 64.3099 280.164 64.2578C279.826 62.6432 279.578 61.3281 279.422 60.3125C279.266 59.2708 279.188 58.5156 279.188 58.0469C279.188 57.8906 279.396 57.8125 279.812 57.8125C280.281 57.8125 280.607 57.9297 280.789 58.1641C281.701 61.9141 283.862 63.7891 287.273 63.7891C288.576 63.7891 289.682 63.3984 290.594 62.6172C291.505 61.8359 291.961 60.7292 291.961 59.2969C291.961 58.8281 291.857 58.2552 291.648 57.5781C291.466 56.901 291.036 56.3151 290.359 55.8203C289.839 55.4297 289.409 55.1432 289.07 54.9609C288.732 54.7526 288.393 54.5703 288.055 54.4141C287.716 54.2318 287.286 53.9844 286.766 53.6719L285.203 52.7344C284.396 52.2396 283.589 51.6797 282.781 51.0547C281.974 50.4036 281.297 49.6484 280.75 48.7891C280.229 47.9297 279.969 46.9531 279.969 45.8594C279.969 44.4792 280.32 43.2812 281.023 42.2656C281.753 41.224 282.69 40.4167 283.836 39.8438C285.008 39.2708 286.271 38.9844 287.625 38.9844C288.198 38.9844 288.732 39.0234 289.227 39.1016C289.747 39.1536 290.177 39.2188 290.516 39.2969C291.297 39.4792 291.844 39.6224 292.156 39.7266C292.495 39.8307 292.951 39.9479 293.523 40.0781C293.836 41.4323 293.992 43.2943 293.992 45.6641C293.992 45.8464 293.862 45.9375 293.602 45.9375C292.951 45.9375 292.612 45.8073 292.586 45.5469C292.456 44.7656 292.169 43.9974 291.727 43.2422C291.284 42.487 290.685 41.862 289.93 41.3672C289.174 40.8464 288.276 40.5859 287.234 40.5859C286.167 40.5859 285.333 40.7943 284.734 41.2109C284.135 41.6016 283.706 42.1094 283.445 42.7344C283.211 43.3333 283.094 43.9714 283.094 44.6484C283.094 45.2995 283.25 45.9505 283.562 46.6016C283.875 47.2526 284.331 47.7995 284.93 48.2422C285.737 48.8411 286.544 49.401 287.352 49.9219C288.185 50.4427 289.044 50.9766 289.93 51.5234C290.763 52.0443 291.596 52.6302 292.43 53.2812C293.263 53.9062 293.953 54.6224 294.5 55.4297C295.073 56.237 295.359 57.1745 295.359 58.2422C295.359 59.6224 294.982 60.8594 294.227 61.9531C293.471 63.0208 292.469 63.8672 291.219 64.4922C289.995 65.0911 288.654 65.3906 287.195 65.3906ZM297.469 65.1172C297.365 65.013 297.312 64.7917 297.312 64.4531C297.312 64.1406 297.365 63.9844 297.469 63.9844C297.677 63.9844 297.964 63.9453 298.328 63.8672C298.693 63.7891 299.031 63.6849 299.344 63.5547C299.656 63.4245 299.826 63.3073 299.852 63.2031C299.956 62.8385 300.021 62.4219 300.047 61.9531C300.099 61.4844 300.125 60.9896 300.125 60.4688V43.5547C300.125 42.6693 300.047 41.8359 299.891 41.0547C299.786 40.638 299.122 40.4297 297.898 40.4297H297.547C297.391 40.4297 297.312 40.2865 297.312 40C297.312 39.5833 297.391 39.375 297.547 39.375C298.875 39.2448 299.995 39.0365 300.906 38.75C301.818 38.4375 302.443 38.1901 302.781 38.0078L302.977 37.8906H303.055C303.159 37.8906 303.263 37.9688 303.367 38.125C303.471 38.2552 303.536 38.3854 303.562 38.5156C303.276 39.375 303.133 40.5078 303.133 41.9141V55.5859C303.654 55.4818 303.979 55.3646 304.109 55.2344L305.906 53.7109L307.312 52.5391C307.755 52.1745 308.133 51.8359 308.445 51.5234C308.784 51.2109 308.953 50.9245 308.953 50.6641C308.953 50.3255 308.667 50.1432 308.094 50.1172C307.573 50.0911 307.273 50.0391 307.195 49.9609C306.987 49.4401 307 49.1406 307.234 49.0625H310.32C311.232 49.0625 311.974 49.0365 312.547 48.9844C313.12 48.9323 313.81 48.8932 314.617 48.8672C314.773 48.8932 314.839 49.0885 314.812 49.4531C314.786 49.7917 314.708 49.9609 314.578 49.9609C314.37 49.9609 314.07 50 313.68 50.0781C313.315 50.1562 312.964 50.2474 312.625 50.3516C312.286 50.4297 312.039 50.5208 311.883 50.625C311.596 50.7812 311.102 51.1198 310.398 51.6406C309.721 52.1615 308.992 52.7604 308.211 53.4375C307.43 54.0885 306.727 54.7266 306.102 55.3516C308.107 57.487 309.669 59.2057 310.789 60.5078C311.935 61.8099 312.677 62.6172 313.016 62.9297C313.458 63.2943 314.018 63.5807 314.695 63.7891C315.372 63.9714 315.854 64.0625 316.141 64.0625C316.245 64.0625 316.297 64.2708 316.297 64.6875C316.297 64.9479 316.284 65.0911 316.258 65.1172L312 64.9219L307.938 65.1172C307.833 65.013 307.781 64.8047 307.781 64.4922C307.781 64.2057 307.833 64.0625 307.938 64.0625C308.198 64.0625 308.497 64.0104 308.836 63.9062C309.174 63.8021 309.344 63.6849 309.344 63.5547C309.344 63.5026 309.331 63.4635 309.305 63.4375L303.602 57.2656L303.133 57.3828V59.7266C303.133 60.5859 303.159 61.3151 303.211 61.9141C303.289 62.487 303.367 62.9167 303.445 63.2031C303.497 63.3073 303.68 63.4245 303.992 63.5547C304.305 63.6849 304.643 63.7891 305.008 63.8672C305.372 63.9453 305.633 63.9844 305.789 63.9844C305.867 63.9844 305.919 64.1406 305.945 64.4531C305.971 64.7656 305.958 64.987 305.906 65.1172L301.727 64.9219L297.469 65.1172ZM317.547 65.1172C317.443 65.013 317.391 64.7917 317.391 64.4531C317.391 64.1406 317.443 63.9844 317.547 63.9844C317.755 63.9844 318.042 63.9453 318.406 63.8672C318.771 63.7891 319.109 63.6849 319.422 63.5547C319.734 63.4245 319.904 63.3073 319.93 63.2031C320.034 62.8385 320.099 62.4219 320.125 61.9531C320.177 61.4844 320.203 60.9896 320.203 60.4688V53.0859C320.203 52.0964 320.021 51.3932 319.656 50.9766C319.396 50.638 319.083 50.4297 318.719 50.3516C318.354 50.2474 318.042 50.1953 317.781 50.1953C317.521 50.1693 317.391 50.1302 317.391 50.0781C317.391 49.4531 317.469 49.1276 317.625 49.1016C319.005 48.8932 320.06 48.724 320.789 48.5938C321.518 48.4375 322.169 48.2943 322.742 48.1641L323.211 48.0469C323.315 48.0208 323.38 48.125 323.406 48.3594C323.432 48.5938 323.432 48.763 323.406 48.8672C323.354 49.388 323.302 49.8828 323.25 50.3516C323.224 50.8203 323.211 51.263 323.211 51.6797V59.7266C323.211 60.4818 323.237 61.1458 323.289 61.7188C323.341 62.2917 323.419 62.7865 323.523 63.2031C323.576 63.3073 323.758 63.4245 324.07 63.5547C324.383 63.6849 324.721 63.7891 325.086 63.8672C325.451 63.9453 325.711 63.9844 325.867 63.9844C325.945 63.9844 325.997 64.1406 326.023 64.4531C326.049 64.7656 326.036 64.987 325.984 65.1172L321.805 64.9219L317.547 65.1172ZM321.414 43.7891C320.893 43.7891 320.438 43.5938 320.047 43.2031C319.656 42.8125 319.461 42.3568 319.461 41.8359C319.461 41.2891 319.656 40.8333 320.047 40.4688C320.438 40.0781 320.893 39.8828 321.414 39.8828C321.961 39.8828 322.417 40.0781 322.781 40.4688C323.172 40.8333 323.367 41.2891 323.367 41.8359C323.367 42.3568 323.172 42.8125 322.781 43.2031C322.417 43.5938 321.961 43.7891 321.414 43.7891ZM328.445 65.1172C328.341 65.013 328.289 64.7917 328.289 64.4531C328.289 64.1406 328.341 63.9844 328.445 63.9844C328.654 63.9844 328.94 63.9453 329.305 63.8672C329.669 63.7891 330.008 63.6849 330.32 63.5547C330.633 63.4245 330.802 63.3073 330.828 63.2031C330.932 62.8385 330.997 62.4219 331.023 61.9531C331.076 61.4844 331.102 60.9896 331.102 60.4688V53.0859C331.102 52.0964 330.919 51.3932 330.555 50.9766C330.294 50.6641 329.982 50.4557 329.617 50.3516C329.279 50.2474 328.966 50.1953 328.68 50.1953C328.419 50.1693 328.289 50.1302 328.289 50.0781C328.289 49.4531 328.367 49.1276 328.523 49.1016C329.904 48.8932 331.023 48.7109 331.883 48.5547C332.742 48.3724 333.276 48.2552 333.484 48.2031L334.109 48.0469C334.214 48.0208 334.279 48.125 334.305 48.3594C334.331 48.5938 334.331 48.763 334.305 48.8672C334.253 49.2318 334.214 49.5443 334.188 49.8047C334.161 50.0651 334.148 50.2734 334.148 50.4297C334.148 50.5339 334.174 50.5859 334.227 50.5859C334.253 50.5859 334.292 50.5599 334.344 50.5078C334.943 49.8828 335.75 49.2969 336.766 48.75C337.807 48.1771 338.797 47.8906 339.734 47.8906C341.557 47.8906 342.833 48.5417 343.562 49.8438C344.292 51.1458 344.656 53.2552 344.656 56.1719V59.7266C344.656 60.4818 344.682 61.1458 344.734 61.7188C344.786 62.2917 344.865 62.7865 344.969 63.2031C345.021 63.3073 345.203 63.4245 345.516 63.5547C345.828 63.6849 346.167 63.7891 346.531 63.8672C346.896 63.9453 347.156 63.9844 347.312 63.9844C347.391 63.9844 347.443 64.1406 347.469 64.4531C347.495 64.7656 347.482 64.987 347.43 65.1172L343.25 64.9219L339.148 65.1172C339.044 65.013 338.992 64.7917 338.992 64.4531C338.992 64.1406 339.044 63.9844 339.148 63.9844C339.357 63.9844 339.63 63.9453 339.969 63.8672C340.307 63.7891 340.62 63.6849 340.906 63.5547C341.193 63.4245 341.349 63.3073 341.375 63.2031C341.479 62.8385 341.544 62.4219 341.57 61.9531C341.622 61.4844 341.648 60.9896 341.648 60.4688V56.5625C341.648 54.1406 341.336 52.487 340.711 51.6016C340.086 50.7161 339.07 50.2734 337.664 50.2734C337.117 50.2734 336.57 50.4297 336.023 50.7422C335.477 51.0286 335.021 51.3672 334.656 51.7578C334.292 52.1484 334.109 52.513 334.109 52.8516V59.7266C334.109 60.4818 334.135 61.1458 334.188 61.7188C334.24 62.2917 334.318 62.7865 334.422 63.2031C334.474 63.3073 334.656 63.4245 334.969 63.5547C335.281 63.6849 335.62 63.7891 335.984 63.8672C336.349 63.9453 336.609 63.9844 336.766 63.9844C336.844 63.9844 336.896 64.1406 336.922 64.4531C336.948 64.7656 336.935 64.987 336.883 65.1172L332.703 64.9219L328.445 65.1172ZM355.203 65.4297C354.396 65.4297 353.667 65.3385 353.016 65.1562C352.365 64.974 351.57 64.8177 350.633 64.6875C350.529 64.401 350.424 64.0104 350.32 63.5156C350.216 63.0208 350.125 62.5 350.047 61.9531C349.995 61.4062 349.969 60.9635 349.969 60.625C350.177 60.4688 350.333 60.3906 350.438 60.3906C350.828 60.3906 351.036 60.4688 351.062 60.625C351.167 61.1458 351.427 61.6667 351.844 62.1875C352.26 62.7083 352.768 63.151 353.367 63.5156C353.966 63.8542 354.578 64.0234 355.203 64.0234C356.036 64.0234 356.714 63.8021 357.234 63.3594C357.781 62.8906 358.055 62.2266 358.055 61.3672C358.055 60.4557 357.703 59.7005 357 59.1016C356.453 58.6589 355.984 58.3464 355.594 58.1641C355.229 57.9557 354.865 57.7734 354.5 57.6172C354.161 57.4349 353.732 57.1875 353.211 56.875C351.18 55.7031 350.164 54.3099 350.164 52.6953C350.164 51.7578 350.424 50.9375 350.945 50.2344C351.466 49.5052 352.156 48.9453 353.016 48.5547C353.901 48.138 354.839 47.9297 355.828 47.9297C356.115 47.9297 356.44 47.9557 356.805 48.0078C357.169 48.0339 357.573 48.0729 358.016 48.125C358.458 48.2031 358.823 48.2682 359.109 48.3203C359.396 48.3724 359.63 48.4115 359.812 48.4375C360.099 49.6354 360.255 50.9635 360.281 52.4219C360.281 52.5521 360.112 52.6172 359.773 52.6172C359.409 52.6172 359.214 52.526 359.188 52.3438C359.057 51.6146 358.68 50.9245 358.055 50.2734C357.456 49.6224 356.766 49.2969 355.984 49.2969C354.109 49.2969 353.172 50.0651 353.172 51.6016C353.172 51.9922 353.211 52.3438 353.289 52.6562C353.393 52.9427 353.615 53.2161 353.953 53.4766C354.76 54.1016 355.711 54.7266 356.805 55.3516C357.924 55.9766 358.849 56.5625 359.578 57.1094C360.672 57.9427 361.219 58.9193 361.219 60.0391C361.219 61.0547 360.945 61.9792 360.398 62.8125C359.852 63.6198 359.122 64.2578 358.211 64.7266C357.299 65.1953 356.297 65.4297 355.203 65.4297ZM373.055 65.1172C372.977 65.0391 372.938 64.8047 372.938 64.4141C372.938 64.0755 372.977 63.9062 373.055 63.9062C373.315 63.9062 373.628 63.8672 373.992 63.7891C374.383 63.7109 374.747 63.6198 375.086 63.5156C375.451 63.3854 375.672 63.2422 375.75 63.0859C375.932 62.7995 376.023 61.5755 376.023 59.4141V44.6484C376.023 43.8932 375.997 43.2292 375.945 42.6562C375.919 42.0833 375.854 41.6276 375.75 41.2891C375.698 41.1328 375.49 40.9896 375.125 40.8594C374.786 40.7292 374.409 40.625 373.992 40.5469C373.602 40.4688 373.289 40.4297 373.055 40.4297C372.951 40.4297 372.898 40.2734 372.898 39.9609C372.898 39.6224 372.951 39.401 373.055 39.2969L377.742 39.375C378.133 39.375 378.562 39.375 379.031 39.375C379.5 39.349 379.995 39.3229 380.516 39.2969C381.036 39.2708 381.531 39.2578 382 39.2578C382.469 39.2318 382.885 39.2188 383.25 39.2188C384.109 39.2188 384.982 39.349 385.867 39.6094C386.753 39.8698 387.599 40.2604 388.406 40.7812C389.24 41.3021 389.904 42.0443 390.398 43.0078C390.919 43.9714 391.18 45.0911 391.18 46.3672C391.18 47.1745 391.01 48.0339 390.672 48.9453C390.333 49.8568 389.826 50.7161 389.148 51.5234C388.497 52.3047 387.664 52.9427 386.648 53.4375C385.659 53.9323 384.513 54.1797 383.211 54.1797C381.753 54.1797 380.75 53.8151 380.203 53.0859C380.047 52.9036 380.008 52.6042 380.086 52.1875C380.138 52.0573 380.177 52.0182 380.203 52.0703C381.01 52.3568 381.883 52.5 382.82 52.5C383.706 52.5 384.5 52.2526 385.203 51.7578C385.932 51.237 386.505 50.5599 386.922 49.7266C387.365 48.8672 387.586 47.9427 387.586 46.9531C387.586 45.1042 387.182 43.6458 386.375 42.5781C385.568 41.4844 384.318 40.9375 382.625 40.9375C381.427 40.9375 380.516 41.0286 379.891 41.2109C379.656 41.237 379.513 41.6406 379.461 42.4219C379.435 43.2031 379.422 44.2318 379.422 45.5078V59.4531C379.422 61.1719 379.526 62.3047 379.734 62.8516C379.839 63.0599 380.086 63.2552 380.477 63.4375C380.893 63.6198 381.336 63.763 381.805 63.8672C382.273 63.9453 382.612 63.9844 382.82 63.9844C382.924 63.9844 382.977 64.1667 382.977 64.5312C382.977 64.7135 382.951 64.9089 382.898 65.1172C381.596 65.0651 380.516 65.026 379.656 65C378.823 64.9479 378.211 64.9219 377.82 64.9219L373.055 65.1172ZM394.07 65.1172C393.966 65.013 393.914 64.7917 393.914 64.4531C393.914 64.1406 393.966 63.9844 394.07 63.9844C394.279 63.9844 394.565 63.9453 394.93 63.8672C395.294 63.7891 395.633 63.6849 395.945 63.5547C396.258 63.4245 396.427 63.3073 396.453 63.2031C396.557 62.8385 396.622 62.4219 396.648 61.9531C396.701 61.4844 396.727 60.9896 396.727 60.4688V53.0859C396.727 52.0964 396.544 51.3932 396.18 50.9766C395.919 50.6641 395.607 50.4557 395.242 50.3516C394.904 50.2474 394.591 50.1953 394.305 50.1953C394.044 50.1693 393.914 50.1302 393.914 50.0781C393.914 49.4531 393.992 49.1276 394.148 49.1016C396.987 48.6589 398.628 48.3724 399.07 48.2422L399.734 48.0469C399.839 48.0208 399.904 48.125 399.93 48.3594C399.956 48.5938 399.956 48.763 399.93 48.8672L399.695 50.8203C400.164 50.1172 400.802 49.4661 401.609 48.8672C402.443 48.2422 403.263 47.9297 404.07 47.9297C405.581 47.9297 406.596 48.3073 407.117 49.0625C407.117 49.974 406.974 50.638 406.688 51.0547C406.401 51.4714 406.049 51.6797 405.633 51.6797C405.164 51.6797 404.734 51.4583 404.344 51.0156C403.953 50.5729 403.419 50.3516 402.742 50.3516C402.221 50.3516 401.727 50.5339 401.258 50.8984C400.789 51.237 400.411 51.6797 400.125 52.2266C399.865 52.7474 399.734 53.2943 399.734 53.8672V59.7266C399.734 60.4818 399.76 61.1458 399.812 61.7188C399.865 62.2917 399.943 62.7865 400.047 63.2031C400.099 63.3073 400.281 63.4245 400.594 63.5547C400.906 63.6849 401.245 63.7891 401.609 63.8672C402 63.9453 402.273 63.9844 402.43 63.9844C402.508 63.9844 402.56 64.1406 402.586 64.4531C402.612 64.7656 402.599 64.987 402.547 65.1172L398.328 64.9219L394.07 65.1172ZM416.805 65.2344C415.372 65.2344 414.057 64.8568 412.859 64.1016C411.661 63.3464 410.698 62.3438 409.969 61.0938C409.266 59.8177 408.914 58.3984 408.914 56.8359C408.914 55.013 409.253 53.4375 409.93 52.1094C410.607 50.7812 411.531 49.7656 412.703 49.0625C413.875 48.3333 415.19 47.9688 416.648 47.9688C417.846 47.9688 418.901 48.2031 419.812 48.6719C420.724 49.1146 421.427 49.6875 421.922 50.3906C422.391 51.1198 422.729 51.862 422.938 52.6172C423.172 53.3464 423.289 54.0755 423.289 54.8047C423.289 55.3255 423.211 55.651 423.055 55.7812C422.898 55.8854 422.599 55.9375 422.156 55.9375H412.312C412.104 55.9375 412 56.0026 412 56.1328C412 57.2266 412.221 58.2812 412.664 59.2969C413.107 60.2865 413.758 61.1068 414.617 61.7578C415.477 62.4089 416.531 62.7344 417.781 62.7344C418.875 62.7344 419.786 62.5781 420.516 62.2656C421.271 61.9271 421.818 61.6276 422.156 61.3672L422.43 61.1719C422.586 61.1719 422.664 61.3411 422.664 61.6797C422.664 61.862 422.586 62.0964 422.43 62.3828C421.909 63.112 421.141 63.776 420.125 64.375C419.109 64.9479 418.003 65.2344 416.805 65.2344ZM412.312 54.2969H419.93C420.06 54.2969 420.125 54.1667 420.125 53.9062C420.125 53.3333 419.969 52.7083 419.656 52.0312C419.37 51.3281 418.927 50.7161 418.328 50.1953C417.729 49.6745 416.974 49.4141 416.062 49.4141C415.229 49.4141 414.513 49.7005 413.914 50.2734C413.315 50.8203 412.859 51.4583 412.547 52.1875C412.234 52.8906 412.078 53.5026 412.078 54.0234C412.078 54.2057 412.156 54.2969 412.312 54.2969ZM433.484 65.2734C433.276 64.7786 432.924 63.9714 432.43 62.8516C431.961 61.7318 431.349 60.2995 430.594 58.5547C429.839 56.7839 429.135 55.1953 428.484 53.7891C427.833 52.3568 427.221 51.0807 426.648 49.9609C426.362 49.4401 425.594 49.1797 424.344 49.1797C424.24 49.1797 424.188 49.0104 424.188 48.6719C424.188 48.3594 424.24 48.151 424.344 48.0469C425.021 48.0729 425.698 48.112 426.375 48.1641C427.052 48.2161 427.729 48.2422 428.406 48.2422C429.057 48.2422 429.708 48.2161 430.359 48.1641C431.01 48.112 431.661 48.0729 432.312 48.0469C432.365 48.151 432.365 48.3724 432.312 48.7109C432.286 49.0234 432.234 49.1797 432.156 49.1797C430.88 49.1797 430.242 49.401 430.242 49.8438C430.242 49.8698 430.255 49.9219 430.281 50C430.307 50.0521 430.333 50.1042 430.359 50.1562L434.969 60.5859L438.914 51.6016C439.044 51.3411 439.122 51.1198 439.148 50.9375C439.201 50.7292 439.227 50.5599 439.227 50.4297C439.227 49.5964 438.289 49.1797 436.414 49.1797C436.31 49.1797 436.258 49.0104 436.258 48.6719C436.258 48.3594 436.31 48.151 436.414 48.0469C436.701 48.0729 437.234 48.125 438.016 48.2031C438.797 48.2552 439.5 48.2682 440.125 48.2422L444.031 48.0469C444.083 48.2552 444.109 48.4505 444.109 48.6328C444.109 48.9974 444.018 49.1797 443.836 49.1797C443.471 49.1797 442.99 49.2839 442.391 49.4922C441.792 49.7005 441.388 50.0391 441.18 50.5078L434.969 64.5312C434.786 64.9479 434.513 65.2083 434.148 65.3125C433.784 65.4427 433.562 65.4297 433.484 65.2734ZM444.93 65.1172C444.826 65.013 444.773 64.7917 444.773 64.4531C444.773 64.1406 444.826 63.9844 444.93 63.9844C445.138 63.9844 445.424 63.9453 445.789 63.8672C446.154 63.7891 446.492 63.6849 446.805 63.5547C447.117 63.4245 447.286 63.3073 447.312 63.2031C447.417 62.8385 447.482 62.4219 447.508 61.9531C447.56 61.4844 447.586 60.9896 447.586 60.4688V53.0859C447.586 52.0964 447.404 51.3932 447.039 50.9766C446.779 50.638 446.466 50.4297 446.102 50.3516C445.737 50.2474 445.424 50.1953 445.164 50.1953C444.904 50.1693 444.773 50.1302 444.773 50.0781C444.773 49.4531 444.852 49.1276 445.008 49.1016C446.388 48.8932 447.443 48.724 448.172 48.5938C448.901 48.4375 449.552 48.2943 450.125 48.1641L450.594 48.0469C450.698 48.0208 450.763 48.125 450.789 48.3594C450.815 48.5938 450.815 48.763 450.789 48.8672C450.737 49.388 450.685 49.8828 450.633 50.3516C450.607 50.8203 450.594 51.263 450.594 51.6797V59.7266C450.594 60.4818 450.62 61.1458 450.672 61.7188C450.724 62.2917 450.802 62.7865 450.906 63.2031C450.958 63.3073 451.141 63.4245 451.453 63.5547C451.766 63.6849 452.104 63.7891 452.469 63.8672C452.833 63.9453 453.094 63.9844 453.25 63.9844C453.328 63.9844 453.38 64.1406 453.406 64.4531C453.432 64.7656 453.419 64.987 453.367 65.1172L449.188 64.9219L444.93 65.1172ZM448.797 43.7891C448.276 43.7891 447.82 43.5938 447.43 43.2031C447.039 42.8125 446.844 42.3568 446.844 41.8359C446.844 41.2891 447.039 40.8333 447.43 40.4688C447.82 40.0781 448.276 39.8828 448.797 39.8828C449.344 39.8828 449.799 40.0781 450.164 40.4688C450.555 40.8333 450.75 41.2891 450.75 41.8359C450.75 42.3568 450.555 42.8125 450.164 43.2031C449.799 43.5938 449.344 43.7891 448.797 43.7891ZM463.875 65.2344C462.443 65.2344 461.128 64.8568 459.93 64.1016C458.732 63.3464 457.768 62.3438 457.039 61.0938C456.336 59.8177 455.984 58.3984 455.984 56.8359C455.984 55.013 456.323 53.4375 457 52.1094C457.677 50.7812 458.602 49.7656 459.773 49.0625C460.945 48.3333 462.26 47.9688 463.719 47.9688C464.917 47.9688 465.971 48.2031 466.883 48.6719C467.794 49.1146 468.497 49.6875 468.992 50.3906C469.461 51.1198 469.799 51.862 470.008 52.6172C470.242 53.3464 470.359 54.0755 470.359 54.8047C470.359 55.3255 470.281 55.651 470.125 55.7812C469.969 55.8854 469.669 55.9375 469.227 55.9375H459.383C459.174 55.9375 459.07 56.0026 459.07 56.1328C459.07 57.2266 459.292 58.2812 459.734 59.2969C460.177 60.2865 460.828 61.1068 461.688 61.7578C462.547 62.4089 463.602 62.7344 464.852 62.7344C465.945 62.7344 466.857 62.5781 467.586 62.2656C468.341 61.9271 468.888 61.6276 469.227 61.3672L469.5 61.1719C469.656 61.1719 469.734 61.3411 469.734 61.6797C469.734 61.862 469.656 62.0964 469.5 62.3828C468.979 63.112 468.211 63.776 467.195 64.375C466.18 64.9479 465.073 65.2344 463.875 65.2344ZM459.383 54.2969H467C467.13 54.2969 467.195 54.1667 467.195 53.9062C467.195 53.3333 467.039 52.7083 466.727 52.0312C466.44 51.3281 465.997 50.7161 465.398 50.1953C464.799 49.6745 464.044 49.4141 463.133 49.4141C462.299 49.4141 461.583 49.7005 460.984 50.2734C460.385 50.8203 459.93 51.4583 459.617 52.1875C459.305 52.8906 459.148 53.5026 459.148 54.0234C459.148 54.2057 459.227 54.2969 459.383 54.2969ZM481.258 65.4297C480.971 65.4297 480.815 65.3776 480.789 65.2734C480.477 64.5703 480.138 63.8021 479.773 62.9688C479.435 62.1094 479.07 61.1849 478.68 60.1953C477.872 58.2422 477.117 56.4844 476.414 54.9219C475.711 53.3333 474.891 51.7057 473.953 50.0391C473.615 49.4661 472.911 49.1797 471.844 49.1797C471.74 49.1797 471.688 49.0104 471.688 48.6719C471.688 48.3594 471.74 48.151 471.844 48.0469C472.391 48.0729 473.003 48.125 473.68 48.2031C474.357 48.2552 475.034 48.2682 475.711 48.2422L479.617 48.0469C479.669 48.151 479.682 48.3724 479.656 48.7109C479.656 49.0234 479.617 49.1797 479.539 49.1797C478.237 49.1797 477.586 49.4792 477.586 50.0781C477.586 50.2604 478.016 51.237 478.875 53.0078C479.734 54.7526 480.854 57.1875 482.234 60.3125C483.146 57.7344 483.862 55.7031 484.383 54.2188C484.93 52.7344 485.203 51.888 485.203 51.6797C485.203 51.5495 485.125 51.3281 484.969 51.0156C484.839 50.7031 484.669 50.3516 484.461 49.9609C484.253 49.6484 483.966 49.4401 483.602 49.3359C483.237 49.2318 482.859 49.1797 482.469 49.1797C482.365 49.1797 482.312 49.0104 482.312 48.6719C482.312 48.3594 482.365 48.151 482.469 48.0469C483.016 48.0729 483.615 48.112 484.266 48.1641C484.943 48.2161 485.607 48.2422 486.258 48.2422C487.091 48.2422 487.82 48.2161 488.445 48.1641C489.096 48.112 489.643 48.0729 490.086 48.0469C490.138 48.2552 490.164 48.4766 490.164 48.7109C490.164 48.9714 490.125 49.1276 490.047 49.1797C488.797 49.1797 488.172 49.6875 488.172 50.7031C488.172 51.224 489.604 54.4271 492.469 60.3125C492.99 58.6979 493.497 57.2135 493.992 55.8594C494.487 54.4792 494.891 53.3333 495.203 52.4219C495.516 51.4844 495.672 50.8594 495.672 50.5469C495.672 49.6354 494.812 49.1797 493.094 49.1797H492.938C492.833 49.1797 492.781 49.0104 492.781 48.6719C492.781 48.3594 492.833 48.151 492.938 48.0469C493.51 48.0729 494.135 48.112 494.812 48.1641C495.49 48.2161 496.18 48.2422 496.883 48.2422C497.508 48.2422 498.107 48.2161 498.68 48.1641C499.279 48.112 499.839 48.0729 500.359 48.0469C500.411 48.2552 500.438 48.4505 500.438 48.6328C500.438 48.9974 500.372 49.1797 500.242 49.1797C499.904 49.1797 499.448 49.2969 498.875 49.5312C498.302 49.7396 497.924 50.0911 497.742 50.5859L492.625 64.5703C492.443 65.1432 492.078 65.4297 491.531 65.4297C491.245 65.4297 491.089 65.3776 491.062 65.2734L486.258 53.7891L482.312 64.5703C482.234 64.7526 482.091 64.9349 481.883 65.1172C481.701 65.3255 481.492 65.4297 481.258 65.4297Z" fill="#D9D9D9"/>
</svg>
