<svg width="110" height="110" viewBox="0 0 110 110" fill="none" xmlns="http://www.w3.org/2000/svg">
<mask id="path-1-inside-1_8_60" fill="white">
<path d="M58.3402 18.908C53.0748 13.6482 46.0742 10.7512 38.6279 10.7512C31.1815 10.7512 24.1809 13.6478 18.9155 18.908C8.04622 29.7662 8.04622 47.4341 18.9155 58.2922C24.1302 63.5017 31.2793 66.4474 38.6425 66.4474C38.918 66.4474 39.1941 66.4431 39.4701 66.4352C40.5112 66.4038 41.3293 65.5356 41.2979 64.4956C41.2665 63.4559 40.392 62.6376 39.3567 62.6696C32.6364 62.8739 26.3288 60.3708 21.5819 55.6287C12.1828 46.2392 12.1828 30.9614 21.5819 21.5723C26.1348 17.0236 32.1884 14.5187 38.6276 14.5187C45.0667 14.5187 51.1203 17.0236 55.6734 21.5723C65.0723 30.9618 65.0723 46.2396 55.6734 55.6287C52.9586 58.3407 49.7443 60.3143 46.1196 61.4946C45.1297 61.8171 44.5886 62.8804 44.9114 63.8691C45.2344 64.8582 46.2981 65.399 47.2889 65.0763C51.4835 63.7103 55.2015 61.428 58.3402 58.2926C69.2095 47.4342 69.2095 29.7662 58.3402 18.908Z"/>
</mask>
<path d="M58.3402 18.908L72.4751 4.75864L72.4748 4.75835L58.3402 18.908ZM18.9155 18.908L33.0505 33.0574L33.0507 33.0571L18.9155 18.908ZM18.9155 58.2922L33.0507 44.1431L33.0503 44.1427L18.9155 58.2922ZM39.4701 66.4352L40.046 86.4269L40.0592 86.4265L40.0723 86.4261L39.4701 66.4352ZM41.2979 64.4956L61.2888 63.892L61.2888 63.8918L41.2979 64.4956ZM39.3567 62.6696L39.9645 82.6604L39.9748 82.6601L39.3567 62.6696ZM21.5819 21.5723L35.7165 35.722L35.7175 35.721L21.5819 21.5723ZM55.6734 21.5723L41.5381 35.7213L41.5383 35.7215L55.6734 21.5723ZM55.6734 55.6287L41.5386 41.4792L41.5385 41.4794L55.6734 55.6287ZM46.1196 61.4946L39.9268 42.4775L39.9248 42.4782L46.1196 61.4946ZM44.9114 63.8691L25.8991 70.0765L25.8995 70.0778L44.9114 63.8691ZM47.2889 65.0763L41.096 46.0593L41.0953 46.0595L47.2889 65.0763ZM58.3402 58.2926L72.4751 72.4419L72.4752 72.4418L58.3402 58.2926ZM72.4748 4.75835C63.4575 -4.24941 51.3723 -9.24878 38.6279 -9.24878V30.7512C40.7761 30.7512 42.6921 31.5458 44.2056 33.0576L72.4748 4.75835ZM38.6279 -9.24878C25.8841 -9.24878 13.7984 -4.25031 4.78034 4.75893L33.0507 33.0571C34.5635 31.5458 36.4789 30.7512 38.6279 30.7512V-9.24878ZM4.78063 4.75864C-13.9087 23.4289 -13.9089 53.7714 4.78077 72.4417L33.0503 44.1427C30.0014 41.0969 30.0012 36.1035 33.0505 33.0574L4.78063 4.75864ZM4.78034 72.4412C13.7605 81.4126 26.0002 86.4474 38.6425 86.4474V46.4474C36.5585 46.4474 34.4999 45.5908 33.0507 44.1431L4.78034 72.4412ZM38.6425 86.4474C39.1254 86.4474 39.5942 86.4399 40.046 86.4269L38.8941 46.4435C38.7941 46.4464 38.7106 46.4474 38.6425 46.4474V86.4474ZM40.0723 86.4261C52.1367 86.0626 61.654 75.9912 61.2888 63.892L21.307 65.0991C21.0045 55.08 28.8857 46.745 38.8678 46.4443L40.0723 86.4261ZM61.2888 63.8918C60.9228 51.7752 50.7892 42.3066 38.7386 42.6792L39.9748 82.6601C29.9949 82.9686 21.6101 75.1367 21.307 65.0993L61.2888 63.8918ZM38.7489 42.6788C37.5399 42.7156 36.5658 42.3275 35.7168 41.4794L7.44699 69.7781C16.0918 78.4141 27.7329 83.0322 39.9645 82.6604L38.7489 42.6788ZM35.7168 41.4794C34.1376 39.9018 34.1381 37.2987 35.7165 35.722L7.44732 7.4226C-9.77256 24.6241 -9.77209 52.5766 7.44699 69.7781L35.7168 41.4794ZM35.7175 35.721C36.5176 34.9216 37.4859 34.5187 38.6276 34.5187V-5.48127C26.8909 -5.48127 15.752 -0.874359 7.44633 7.42359L35.7175 35.721ZM38.6276 34.5187C39.769 34.5187 40.7375 34.9214 41.5381 35.7213L69.8086 7.42325C61.503 -0.874251 50.3643 -5.48127 38.6276 -5.48127V34.5187ZM41.5383 35.7215C43.1175 37.2991 43.1171 39.9024 41.5386 41.4792L69.8081 69.7783C87.0276 52.5768 87.0271 24.6245 69.8085 7.42308L41.5383 35.7215ZM41.5385 41.4794C41.0357 41.9816 40.5374 42.2787 39.9268 42.4775L52.3124 80.5117C58.9512 78.3498 64.8815 74.6998 69.8083 69.7781L41.5385 41.4794ZM39.9248 42.4782C28.4477 46.217 22.1398 58.5624 25.8991 70.0765L63.9237 57.6616C67.0374 67.1983 61.8116 77.4173 52.3144 80.5111L39.9248 42.4782ZM25.8995 70.0778C29.6514 81.5667 42.0006 87.8327 53.4825 84.0931L41.0953 46.0595C50.5956 42.9653 60.8174 48.1498 63.9233 57.6603L25.8995 70.0778ZM53.4818 84.0933C60.6877 81.7467 67.1223 77.7892 72.4751 72.4419L44.2053 44.1432C43.2807 45.0668 42.2793 45.6739 41.096 46.0593L53.4818 84.0933ZM72.4752 72.4418C91.1644 53.7713 91.1646 23.4291 72.4751 4.75864L44.2053 33.0574C47.2544 36.1034 47.2546 41.097 44.2051 44.1434L72.4752 72.4418Z" fill="white" mask="url(#path-1-inside-1_8_60)"/>
<mask id="path-3-inside-2_8_60" fill="white">
<path d="M38.6282 24.0825C28.3391 24.0825 19.9684 30.5953 19.9684 38.6006C19.9684 46.6059 28.3391 53.1187 38.6282 53.1187C48.917 53.1185 57.2878 46.6059 57.2878 38.6006C57.2878 30.5953 48.917 24.0825 38.6282 24.0825ZM38.6282 49.3512C30.4183 49.3512 23.7393 44.5284 23.7393 38.6002C23.7393 32.672 30.4183 27.8492 38.6282 27.8492C46.8378 27.8492 53.5168 32.672 53.5168 38.6002C53.5168 44.5284 46.8378 49.3512 38.6282 49.3512Z"/>
</mask>
<path d="M38.6282 53.1187L38.6282 73.1187L38.6286 73.1187L38.6282 53.1187ZM38.6282 4.08252C22.2553 4.08252 -0.0316162 15.1686 -0.0316162 38.6006H39.9684C39.9684 42.0117 38.1394 43.7993 37.7213 44.1246C37.3229 44.4346 37.5829 44.0825 38.6282 44.0825V4.08252ZM-0.0316162 38.6006C-0.0316162 62.0326 22.2553 73.1187 38.6282 73.1187V33.1187C37.5829 33.1187 37.3229 32.7667 37.7213 33.0766C38.1394 33.4019 39.9684 35.1895 39.9684 38.6006H-0.0316162ZM38.6286 73.1187C55.0006 73.1184 77.2878 62.0328 77.2878 38.6006H37.2878C37.2878 35.1894 39.1168 33.4018 39.5349 33.0765C39.9332 32.7666 39.6731 33.1187 38.6278 33.1187L38.6286 73.1187ZM77.2878 38.6006C77.2878 15.1687 55.001 4.08252 38.6282 4.08252V44.0825C39.6732 44.0825 39.9332 44.4345 39.5348 44.1245C39.1167 43.7993 37.2878 42.0117 37.2878 38.6006H77.2878ZM38.6282 29.3512C38.2731 29.3512 38.7511 29.217 39.8134 29.9841C40.8393 30.7249 43.7393 33.506 43.7393 38.6002H3.73931C3.73931 49.6225 9.97884 57.7792 16.3967 62.4134C22.851 67.074 30.7734 69.3512 38.6282 69.3512V29.3512ZM43.7393 38.6002C43.7393 43.6943 40.8393 46.4755 39.8134 47.2162C38.7511 47.9833 38.2731 47.8492 38.6282 47.8492V7.84917C30.7734 7.84917 22.851 10.1264 16.3967 14.787C9.97884 19.4212 3.73931 27.5778 3.73931 38.6002H43.7393ZM38.6282 47.8492C38.983 47.8492 38.505 47.9833 37.4427 47.2162C36.4168 46.4754 33.5168 43.6943 33.5168 38.6002H73.5168C73.5168 27.5779 67.2773 19.4212 60.8595 14.787C54.4053 10.1265 46.4829 7.84917 38.6282 7.84917V47.8492ZM33.5168 38.6002C33.5168 33.5061 36.4168 30.725 37.4427 29.9842C38.505 29.2171 38.983 29.3512 38.6282 29.3512V69.3512C46.4829 69.3512 54.4053 67.0739 60.8595 62.4134C67.2773 57.7791 73.5168 49.6225 73.5168 38.6002H33.5168Z" fill="white" mask="url(#path-3-inside-2_8_60)"/>
<path d="M38.6283 44.4663C41.8716 44.4663 44.5008 41.8398 44.5008 38.5998C44.5008 35.3598 41.8716 32.7333 38.6283 32.7333C35.385 32.7333 32.7557 35.3598 32.7557 38.5998C32.7557 41.8398 35.385 44.4663 38.6283 44.4663Z" fill="white"/>
<mask id="path-6-inside-3_8_60" fill="white">
<path d="M105.917 89.2233C103.809 86.2988 101.187 83.7454 97.4171 80.9445C96.5813 80.3234 95.4004 80.497 94.7789 81.3316C94.1574 82.1661 94.3311 83.346 95.1664 83.9671C98.6126 86.5272 100.984 88.8273 102.856 91.4244C109.142 100.146 105.004 104.03 104.688 104.306C104.552 104.408 104.502 104.457 104.4 104.594C104.125 104.908 100.236 109.042 91.5056 102.763C86.6873 99.2973 83.3775 94.3164 79.8735 89.0432C76.6759 84.2312 73.1041 78.8562 67.9105 73.9803C69.1833 73.2651 70.3397 72.3645 71.3797 71.3427C71.3838 71.3388 71.3877 71.3351 71.3916 71.3313C71.3969 71.3259 71.4021 71.3203 71.4075 71.3147C72.1804 70.5404 72.8772 69.6869 73.4792 68.7738C73.5351 68.6891 74.0848 67.8972 74.0416 67.8517C78.9229 73.041 84.3038 76.6094 89.1208 79.8041L89.1427 79.8185C90.0101 80.3943 91.1802 80.1577 91.7562 79.291C92.3321 78.4244 92.0957 77.2554 91.228 76.68L91.2062 76.6656C85.8976 73.145 80.4171 69.5034 75.5406 63.8837C76.2307 60.6232 75.6079 57.3939 73.5708 55.0897C80.3255 40.7684 77.788 23.1241 65.9539 11.3021C59.9009 5.25467 52.227 1.46245 43.7623 0.335165C35.5705 -0.755598 27.0972 0.835967 19.9059 4.81767C18.9951 5.32191 18.6661 6.46811 19.1708 7.37797C19.6756 8.28762 20.823 8.61719 21.734 8.11231C28.2222 4.52011 35.8684 3.08302 43.2644 4.06916C50.9011 5.08601 57.8251 8.50827 63.2879 13.9655C68.186 18.8586 71.5449 25.1735 72.8533 31.9693C74.1332 38.6165 73.4471 45.5983 70.8752 51.8623C69.1345 56.1016 66.5315 59.9955 63.2882 63.2349C61.0173 65.5034 58.4251 67.4572 55.6239 69.0258C55.5586 69.0621 55.4925 69.0967 55.4269 69.1328C42.1818 76.3979 25.1774 74.433 13.9678 63.2349C0.370178 49.6514 0.370178 27.5488 13.9678 13.9653C14.6022 13.3315 15.2681 12.7149 15.946 12.1338C16.7361 11.4564 16.8271 10.267 16.1488 9.47807C15.4711 8.68831 14.2805 8.59786 13.4899 9.27505C12.7396 9.9185 12.003 10.6 11.301 11.3012C-3.767 26.3539 -3.767 50.8461 11.301 65.8985C18.8351 73.4249 28.7311 77.1879 38.6274 77.1879C44.2767 77.1879 49.9252 75.9594 55.1351 73.507C56.7915 74.9667 59.0019 75.7657 61.4236 75.7661C62.2647 75.7661 63.1127 75.6709 63.9546 75.4913C69.5704 80.359 73.2116 85.8283 76.7322 91.1264C80.432 96.6938 83.9263 101.953 89.3027 105.82C93.1685 108.6 96.779 110 100.072 110C102.666 110 105.44 109.081 107.207 107.11C112.138 101.61 109.794 94.6032 105.917 89.2233ZM61.4231 71.9994C60.6982 71.9994 59.7768 71.8922 58.8794 71.4892C58.9391 71.4524 58.9972 71.4133 59.0568 71.3764C59.1284 71.3319 59.1992 71.2857 59.2706 71.2406C61.6862 69.7141 63.9334 67.9183 65.9545 65.8992C67.4555 64.4 68.8267 62.7818 70.0627 61.0585C70.4941 60.4569 70.9079 59.8436 71.3038 59.2184C71.3481 59.1483 71.3935 59.0787 71.4376 59.0085C71.4756 58.9474 71.5159 58.8879 71.5535 58.8267C72.1879 60.2144 72.2374 61.9215 71.7483 63.6601C71.7234 63.7198 71.6987 63.7799 71.6797 63.8429C70.3861 68.1503 66.0565 71.9994 61.4231 71.9994Z"/>
</mask>
<path d="M105.917 89.2233L122.141 77.5287L122.141 77.5283L105.917 89.2233ZM97.4171 80.9445L85.4871 96.9968L85.4898 96.9987L97.4171 80.9445ZM94.7789 81.3316L110.819 93.2786L110.82 93.2766L94.7789 81.3316ZM95.1664 83.9671L83.2325 100.016L83.2398 100.022L95.1664 83.9671ZM102.856 91.4244L119.081 79.7301L119.081 79.7298L102.856 91.4244ZM104.688 104.306L116.66 120.327L117.275 119.867L117.853 119.362L104.688 104.306ZM104.4 104.594L119.455 117.76L119.949 117.195L120.4 116.593L104.4 104.594ZM91.5056 102.763L79.8268 118.999L79.8282 119L91.5056 102.763ZM79.8735 89.0432L63.2157 100.112L63.2159 100.112L79.8735 89.0432ZM67.9105 73.9803L58.1126 56.5447L34.345 69.9008L54.2214 88.5614L67.9105 73.9803ZM71.3797 71.3427L57.6322 56.8166L57.4966 56.945L57.3633 57.0759L71.3797 71.3427ZM71.3916 71.3313L57.2566 57.1819L71.3916 71.3313ZM71.4075 71.3147L57.2529 57.185L57.1242 57.314L56.9979 57.4452L71.4075 71.3147ZM73.4792 68.7738L56.7914 57.7503L56.7864 57.7579L56.7813 57.7655L73.4792 68.7738ZM74.0416 67.8517L88.5482 54.0837L59.4737 81.5548L74.0416 67.8517ZM89.1208 79.8041L78.0666 96.4716L78.1072 96.4985L78.1479 96.5252L89.1208 79.8041ZM89.1427 79.8185L100.204 63.1558L100.16 63.1264L100.116 63.0973L89.1427 79.8185ZM91.228 76.68L102.28 60.011L102.279 60.0106L91.228 76.68ZM91.2062 76.6656L80.1524 93.3333L80.155 93.3351L91.2062 76.6656ZM75.5406 63.8837L55.9741 59.7421L53.9136 69.4766L60.435 76.9918L75.5406 63.8837ZM73.5708 55.0897L55.4819 46.558L49.8637 58.4696L58.5868 68.3366L73.5708 55.0897ZM65.9539 11.3021L51.8182 25.4507L51.819 25.4515L65.9539 11.3021ZM43.7623 0.335165L46.4025 -19.4898L46.4021 -19.4899L43.7623 0.335165ZM19.9059 4.81767L29.593 22.3151L29.5938 22.3147L19.9059 4.81767ZM19.1708 7.37797L1.68178 17.0802L1.68275 17.0819L19.1708 7.37797ZM21.734 8.11231L12.0467 -9.38501L12.0392 -9.38088L21.734 8.11231ZM43.2644 4.06916L40.6212 23.8937L40.6247 23.8942L43.2644 4.06916ZM72.8533 31.9693L92.4926 28.188L92.4926 28.1879L72.8533 31.9693ZM70.8752 51.8623L89.3762 59.4591L89.3764 59.4588L70.8752 51.8623ZM63.2882 63.2349L49.1547 49.0841L49.1533 49.0855L63.2882 63.2349ZM55.6239 69.0258L65.3341 86.5104L65.3648 86.4934L65.3955 86.4762L55.6239 69.0258ZM55.4269 69.1328L65.0453 86.6681L65.0571 86.6616L65.0688 86.6552L55.4269 69.1328ZM13.9678 63.2349L28.1027 49.0855L28.1026 49.0854L13.9678 63.2349ZM13.9678 13.9653L28.1026 28.1148L28.1027 28.1147L13.9678 13.9653ZM15.946 12.1338L28.9632 27.3176L28.9633 27.3176L15.946 12.1338ZM16.1488 9.47807L0.970499 22.5019L0.977066 22.5096L0.983641 22.5172L16.1488 9.47807ZM13.4899 9.27505L0.479048 -5.91433L0.470668 -5.90714L13.4899 9.27505ZM11.301 65.8985L25.4359 51.7492L25.4358 51.7491L11.301 65.8985ZM55.1351 73.507L68.3579 58.5017L58.5023 49.8169L46.6171 55.4116L55.1351 73.507ZM61.4236 75.7661L61.42 95.7661H61.4236V75.7661ZM63.9546 75.4913L77.0544 60.3785L69.5259 53.8529L59.7821 55.9314L63.9546 75.4913ZM76.7322 91.1264L60.0746 102.195L60.0748 102.196L76.7322 91.1264ZM89.3027 105.82L77.6237 122.056L77.6251 122.057L89.3027 105.82ZM100.072 110L100.072 90L100.071 90L100.072 110ZM107.207 107.11L92.3161 93.7583L92.3153 93.7591L107.207 107.11ZM58.8794 71.4892L48.4086 54.4491L16.1947 74.2439L50.6858 89.7338L58.8794 71.4892ZM59.0568 71.3764L69.5993 88.3721L69.6077 88.3669L59.0568 71.3764ZM59.2706 71.2406L69.9541 88.1481L69.9546 88.1478L59.2706 71.2406ZM65.9545 65.8992L51.8206 51.7488L51.8196 51.7498L65.9545 65.8992ZM70.0627 61.0585L86.3147 72.7149L86.3152 72.7142L70.0627 61.0585ZM71.3038 59.2184L88.2005 69.9189L88.2062 69.9099L71.3038 59.2184ZM71.4376 59.0085L88.3781 69.6395L88.3921 69.6171L88.4061 69.5947L71.4376 59.0085ZM71.5535 58.8267L89.7426 50.5107L74.1509 16.4076L54.5148 48.3537L71.5535 58.8267ZM71.7483 63.6601L90.2032 71.3685L90.6718 70.2465L91.0011 69.076L71.7483 63.6601ZM71.6797 63.8429L52.5266 58.0845L52.5249 58.0903L71.6797 63.8429ZM122.141 77.5283C118.533 72.5227 114.292 68.5662 109.344 64.8902L85.4898 96.9987C88.082 98.9246 89.0844 100.075 89.6924 100.918L122.141 77.5283ZM109.347 64.8922C99.6522 57.687 85.9523 59.6981 78.7378 69.3867L110.82 93.2766C104.849 101.296 93.5105 102.96 85.4871 96.9968L109.347 64.8922ZM78.7392 69.3847C71.5055 79.0965 73.5421 92.8109 83.2325 100.016L107.1 67.9178C115.12 73.8811 116.809 85.2357 110.819 93.2786L78.7392 69.3847ZM83.2398 100.022C85.5612 101.746 86.2893 102.644 86.6314 103.119L119.081 79.7298C115.679 75.0104 111.664 71.308 107.093 67.9124L83.2398 100.022ZM86.6312 103.119C87.7529 104.675 85.823 102.751 86.4342 98.3072C87.0176 94.0651 89.4441 91.0678 91.5237 89.2495L117.853 119.362C120.248 117.268 124.901 112.19 126.061 103.757C127.249 95.1213 124.245 86.895 119.081 79.7301L86.6312 103.119ZM92.7164 88.2848C91.0377 89.5392 89.6354 90.9467 88.4 92.5939L120.4 116.593C120.26 116.781 119.631 117.622 118.671 118.582C117.707 119.545 116.863 120.175 116.66 120.327L92.7164 88.2848ZM89.3458 91.4269C91.1805 89.3291 94.1798 86.9166 98.4044 86.3368C102.831 85.7293 104.743 87.648 103.183 86.5263L79.8282 119C86.9992 124.157 95.2206 127.149 103.843 125.965C112.263 124.81 117.345 120.173 119.455 117.76L89.3458 91.4269ZM103.184 86.5272C101.843 85.5622 100.443 83.8616 96.5311 77.9742L63.2159 100.112C66.3117 104.771 71.5319 113.032 79.8268 118.999L103.184 86.5272ZM96.5312 77.9744C93.4236 73.2976 88.7009 66.0661 81.5997 59.3992L54.2214 88.5614C57.5073 91.6463 59.9282 95.1647 63.2157 100.112L96.5312 77.9744ZM77.7084 91.4159C80.7192 89.724 83.2691 87.6991 85.3961 85.6094L57.3633 57.0759C57.4102 57.0298 57.6474 56.8061 58.1126 56.5447L77.7084 91.4159ZM85.1272 85.8687C85.1007 85.8938 85.1591 85.8387 85.2117 85.7883C85.2773 85.7256 85.3895 85.6174 85.5265 85.4806L57.2566 57.1819C57.3897 57.049 57.4981 56.9446 57.5597 56.8856C57.5906 56.8561 57.6148 56.8331 57.6257 56.8228C57.6302 56.8185 57.6473 56.8024 57.6322 56.8166L85.1272 85.8687ZM85.5265 85.4806C85.7089 85.2984 85.8485 85.1516 85.8849 85.1134C85.896 85.1018 85.9048 85.0925 85.9071 85.0901C85.9125 85.0844 85.9064 85.0908 85.903 85.0944C85.894 85.1039 85.8605 85.1391 85.8171 85.1843L56.9979 57.4452C56.9517 57.4932 56.9156 57.5312 56.9039 57.5435C56.8992 57.5484 56.8918 57.5562 56.8959 57.552C56.8968 57.551 56.9043 57.543 56.9141 57.5328C56.9331 57.5128 56.9757 57.4681 57.0306 57.4114C57.0865 57.3537 57.1637 57.2748 57.2566 57.1819L85.5265 85.4806ZM85.562 85.4444C87.2765 83.727 88.8274 81.8292 90.177 79.782L56.7813 57.7655C56.927 57.5445 57.0844 57.3539 57.2529 57.185L85.562 85.4444ZM90.167 79.7973C90.1128 79.8793 89.933 80.1459 90.1654 79.8021C90.2546 79.6702 90.4069 79.4437 90.5755 79.1839C90.6946 79.0003 91.0332 78.4774 91.3912 77.844C91.5175 77.6205 91.9974 76.774 92.4697 75.6505C92.6574 75.2038 93.2622 73.752 93.6543 71.7924C93.8453 70.8376 94.1843 68.8252 93.9808 66.2699C93.7898 63.8722 92.9264 58.6968 88.5482 54.0837L59.5349 81.6197C55.1594 77.0094 54.2976 71.8383 54.1071 69.4462C53.904 66.8966 54.2423 64.8913 54.4317 63.9448C54.8204 62.0018 55.4178 60.5718 55.5945 60.1513C56.0448 59.0801 56.4884 58.3037 56.5684 58.1621C56.7262 57.883 56.8508 57.6805 56.901 57.5996C56.961 57.5029 57.0036 57.437 57.0196 57.4122C57.0492 57.3666 57.0563 57.3569 57.028 57.3987C57.0165 57.4157 57.0056 57.4317 56.9837 57.464C56.9759 57.4754 56.9565 57.504 56.9372 57.5324C56.9323 57.5397 56.8668 57.6361 56.7914 57.7503L90.167 79.7973ZM59.4737 81.5548C66.1477 88.65 73.3866 93.3677 78.0666 96.4716L100.175 63.1366C95.2209 59.851 91.6981 57.432 88.6095 54.1485L59.4737 81.5548ZM78.1479 96.5252L78.1699 96.5396L100.116 63.0973L100.094 63.0829L78.1479 96.5252ZM78.0813 96.4812C88.1522 103.167 101.729 100.42 108.414 90.3605L75.0988 68.2216C80.6315 59.8959 91.868 57.6219 100.204 63.1558L78.0813 96.4812ZM108.414 90.3605C115.111 80.2819 112.355 66.6911 102.28 60.011L80.1761 93.3491C71.8364 87.8197 69.5531 76.5668 75.0988 68.2216L108.414 90.3605ZM102.279 60.0106L102.258 59.9962L80.155 93.3351L80.1767 93.3495L102.279 60.0106ZM102.26 59.998C96.7994 56.3765 93.5099 54.0757 90.6461 50.7756L60.435 76.9918C67.3244 84.931 74.9958 89.9135 80.1524 93.3333L102.26 59.998ZM95.107 68.0253C96.8159 59.9522 95.641 49.8582 88.5548 41.8428L58.5868 68.3366C55.5748 64.9296 55.6455 61.2943 55.9741 59.7421L95.107 68.0253ZM91.6597 63.6215C101.894 41.9238 98.098 15.1435 80.0888 -2.84726L51.819 25.4515C57.478 31.1047 58.7575 39.6131 55.4819 46.558L91.6597 63.6215ZM80.0895 -2.8465C70.9378 -11.9899 59.227 -17.7819 46.4025 -19.4898L41.1221 20.1601C45.227 20.7068 48.864 22.4992 51.8182 25.4507L80.0895 -2.8465ZM46.4021 -19.4899C33.9838 -21.1434 21.1854 -18.7518 10.2181 -12.6794L29.5938 22.3147C33.009 20.4237 37.1573 19.6322 41.1225 20.1602L46.4021 -19.4899ZM10.2189 -12.6798C-0.353548 -6.82662 -4.18899 6.49759 1.68178 17.0802L36.6599 -2.32422C41.5212 6.43863 38.3438 17.4704 29.593 22.3151L10.2189 -12.6798ZM1.68275 17.0819C7.54182 27.6409 20.8546 31.4657 31.4287 25.6055L12.0392 -9.38088C20.7913 -14.2313 31.8094 -11.0657 36.6589 -2.32598L1.68275 17.0819ZM31.4213 25.6096C34.1339 24.1078 37.4541 23.4714 40.6212 23.8937L45.9077 -15.7554C34.2827 -17.3054 22.3105 -15.0676 12.0467 -9.38501L31.4213 25.6096ZM40.6247 23.8942C43.8995 24.3302 46.7874 25.7516 49.153 28.1149L77.4229 -0.183835C68.8629 -8.73508 57.9028 -14.1582 45.9042 -15.7559L40.6247 23.8942ZM49.153 28.1149C51.2291 30.1889 52.6643 32.8955 53.2141 35.7506L92.4926 28.1879C90.4255 17.4515 85.1429 7.52833 77.4229 -0.183835L49.153 28.1149ZM53.2141 35.7505C53.7626 38.5996 53.458 41.6257 52.374 44.2659L89.3764 59.4588C93.4362 49.571 94.5038 38.6335 92.4926 28.188L53.2141 35.7505ZM52.3742 44.2655C51.6482 46.0335 50.5366 47.7039 49.1547 49.0841L77.4217 77.3856C82.5265 72.287 86.6208 66.1697 89.3762 59.4591L52.3742 44.2655ZM49.1533 49.0855C48.1961 50.0417 47.0762 50.8901 45.8523 51.5754L65.3955 86.4762C69.7741 84.0244 73.8386 80.9651 77.4231 77.3842L49.1533 49.0855ZM45.9138 51.5411C45.967 51.5116 46.0077 51.4894 46.0286 51.478C46.0477 51.4677 46.0595 51.4614 46.0457 51.4688C46.0437 51.4698 46.0275 51.4786 46.0173 51.4841C46.0042 51.4911 45.9856 51.5011 45.9643 51.5127C45.9223 51.5354 45.8594 51.5695 45.7851 51.6104L65.0688 86.6552C65.0272 86.678 64.9972 86.6943 64.9881 86.6992C64.9837 86.7016 64.9769 86.7053 65.0053 86.69C65.0245 86.6797 65.0691 86.6556 65.121 86.6275C65.1747 86.5983 65.2482 86.5581 65.3341 86.5104L45.9138 51.5411ZM45.8085 51.5975C40.1221 54.7166 32.8405 53.8184 28.1027 49.0855L-0.167107 77.3842C17.5142 95.0475 44.2415 98.0793 65.0453 86.6681L45.8085 51.5975ZM28.1026 49.0854C22.3252 43.314 22.3252 33.8861 28.1026 28.1148L-0.166995 -0.184162C-21.5849 21.2115 -21.5849 55.9887 -0.166995 77.3843L28.1026 49.0854ZM28.1027 28.1147C28.3808 27.8369 28.674 27.5656 28.9632 27.3176L2.92868 -3.05012C1.86218 -2.1358 0.823726 -1.17387 -0.167107 -0.18405L28.1027 28.1147ZM28.9633 27.3176C38.1391 19.451 39.2083 5.62047 31.3139 -3.56106L0.983641 22.5172C-5.55412 14.9135 -4.66689 3.46168 2.92861 -3.05007L28.9633 27.3176ZM31.327 -3.54576C23.4466 -12.7298 9.63684 -13.7587 0.47905 -5.91432L26.5008 24.4644C18.9242 30.9544 7.49557 30.1064 0.970499 22.5019L31.327 -3.54576ZM0.470668 -5.90714C-0.662053 -4.93579 -1.77097 -3.90996 -2.8339 -2.84812L25.4359 25.4506C25.7769 25.1099 26.1412 24.7728 26.5092 24.4572L0.470668 -5.90714ZM-2.8339 -2.84812C-25.722 20.0166 -25.7221 57.1833 -2.8338 80.048L25.4358 51.7491C18.1881 44.5089 18.188 32.6911 25.4359 25.4506L-2.8339 -2.84812ZM-2.8339 80.0479C8.61527 91.4853 23.668 97.1879 38.6274 97.1879V57.1879C33.7941 57.1879 29.055 55.3645 25.4359 51.7492L-2.8339 80.0479ZM38.6274 97.1879C47.169 97.1879 55.7315 95.3313 63.6531 91.6024L46.6171 55.4116C44.1189 56.5876 41.3845 57.1879 38.6274 57.1879V97.1879ZM41.9123 88.5123C47.5526 93.4825 54.5925 95.7649 61.42 95.7661L61.4271 55.7661C63.4114 55.7664 66.0305 56.4508 68.3579 58.5017L41.9123 88.5123ZM61.4236 95.7661C63.7714 95.7661 66.0196 95.5008 68.1272 95.0512L59.7821 55.9314C60.2058 55.841 60.7579 55.7661 61.4236 55.7661V95.7661ZM50.8549 90.6041C54.1532 93.4631 56.4534 96.7459 60.0746 102.195L93.3898 80.0573C89.9699 74.9108 84.9876 67.255 77.0544 60.3785L50.8549 90.6041ZM60.0748 102.196C63.4502 107.275 68.812 115.717 77.6237 122.056L100.982 89.5842C99.0407 88.1879 97.4137 86.1126 93.3897 80.057L60.0748 102.196ZM77.6251 122.057C83.4447 126.242 91.1014 130.001 100.074 130L100.071 90C101.287 89.9999 102.018 90.261 102.137 90.3072C102.23 90.3432 101.843 90.2036 100.98 89.5832L77.6251 122.057ZM100.072 130C106.712 130 115.567 127.746 122.099 120.46L92.3153 93.7591C93.878 92.0161 95.557 91.0935 96.7728 90.6261C97.9769 90.1632 99.0841 90 100.072 90V130ZM122.098 120.461C129.034 112.725 130.85 103.418 129.655 95.2324C128.574 87.8226 125.162 81.7192 122.141 77.5287L89.692 100.918C90.0366 101.396 90.2102 101.725 90.27 101.855C90.3358 101.999 90.1769 101.709 90.075 101.011C89.9662 100.266 89.9207 99.0103 90.3362 97.4874C90.7692 95.9001 91.5421 94.6215 92.3161 93.7583L122.098 120.461ZM61.4231 51.9994C62.4996 51.9994 64.6004 52.1342 67.073 53.2446L50.6858 89.7338C54.9532 91.6503 58.8967 91.9994 61.4231 91.9994V51.9994ZM69.3501 88.5292C69.4808 88.4489 69.5892 88.3805 69.6633 88.3333C69.7339 88.2884 69.7935 88.2499 69.8085 88.2402C69.838 88.2212 69.8134 88.2371 69.7874 88.2537C69.7552 88.2743 69.6877 88.3173 69.5993 88.3721L48.5143 54.3807C48.3961 54.454 48.299 54.5157 48.2372 54.5552C48.2058 54.5753 48.1793 54.5924 48.1617 54.6037C48.1465 54.6134 48.1292 54.6247 48.1278 54.6255C48.1222 54.6291 48.1271 54.6259 48.1354 54.6207C48.1443 54.6149 48.1617 54.6038 48.1845 54.5892C48.2291 54.5609 48.3078 54.5111 48.4086 54.4491L69.3501 88.5292ZM69.6077 88.3669C69.7626 88.2708 69.8914 88.1884 69.9395 88.1576C69.9526 88.1492 69.9662 88.1405 69.9727 88.1363C69.9811 88.1309 69.9844 88.1288 69.9863 88.1277C69.9902 88.1251 69.9765 88.1339 69.9541 88.1481L48.587 54.3332C48.5289 54.3699 48.4796 54.4014 48.448 54.4216C48.432 54.4317 48.4175 54.441 48.4081 54.447C48.3969 54.4542 48.3927 54.4569 48.388 54.4599C48.3794 54.4654 48.3893 54.459 48.4071 54.4478C48.4258 54.4359 48.4604 54.4141 48.5059 54.3859L69.6077 88.3669ZM69.9546 88.1478C73.6187 85.8323 77.0233 83.1115 80.0894 80.0485L51.8196 51.7498C50.8434 52.725 49.7536 53.596 48.5866 54.3335L69.9546 88.1478ZM80.0884 80.0495C82.3727 77.7679 84.4506 75.3139 86.3147 72.7149L53.8106 49.4021C53.2028 50.2496 52.5382 51.0321 51.8206 51.7488L80.0884 80.0495ZM86.3152 72.7142C86.9695 71.8019 87.5981 70.8701 88.2005 69.9189L54.4071 48.5178C54.2176 48.8171 54.0187 49.112 53.8101 49.4028L86.3152 72.7142ZM88.2062 69.9099C88.1934 69.9301 88.1855 69.9425 88.1866 69.9408C88.1903 69.935 88.1912 69.9335 88.2089 69.906C88.232 69.8699 88.3002 69.7636 88.3781 69.6395L54.4971 48.3774C54.5163 48.3468 54.5302 48.3249 54.5357 48.3164C54.5404 48.3089 54.5418 48.3067 54.5327 48.321C54.5279 48.3284 54.5065 48.3618 54.4878 48.391C54.4666 48.4242 54.4364 48.4716 54.4014 48.5268L88.2062 69.9099ZM88.4061 69.5947C88.353 69.6799 88.3117 69.7444 88.2932 69.7732C88.2798 69.7941 88.264 69.8184 88.2865 69.7836C88.2989 69.7644 88.3395 69.7018 88.3875 69.6266C88.4374 69.5482 88.5088 69.4354 88.5922 69.2997L54.5148 48.3537C54.5794 48.2487 54.6316 48.1662 54.6623 48.1181C54.678 48.0935 54.6902 48.0745 54.697 48.064C54.7034 48.054 54.7074 48.0478 54.7049 48.0517C54.7031 48.0545 54.7027 48.0551 54.6987 48.0613C54.6957 48.0659 54.691 48.0731 54.6858 48.0813C54.6754 48.0973 54.659 48.1226 54.6397 48.1527C54.6018 48.2117 54.5412 48.3065 54.4691 48.4222L88.4061 69.5947ZM53.3644 67.1427C51.5835 63.2475 52.0263 59.9125 52.4956 58.2442L91.0011 69.076C92.4485 63.9305 92.7924 57.1812 89.7426 50.5107L53.3644 67.1427ZM53.2935 55.9516C53.29 55.9602 52.8816 56.9037 52.5266 58.0845L90.8328 69.6012C90.6591 70.1793 90.491 70.6376 90.3817 70.922C90.3262 71.0664 90.2798 71.1818 90.2505 71.2536C90.2356 71.2902 90.2235 71.3195 90.2158 71.338C90.2084 71.3561 90.2032 71.3685 90.2032 71.3685L53.2935 55.9516ZM52.5249 58.0903C53.1151 56.1249 54.1261 54.891 55.0938 54.0944C56.0756 53.2864 58.1894 51.9994 61.4231 51.9994V91.9994C76.4649 91.9994 87.4862 80.7447 90.8346 69.5955L52.5249 58.0903Z" fill="white" mask="url(#path-6-inside-3_8_60)"/>
</svg>
