<svg width="120" height="120" viewBox="0 0 120 120" fill="none" xmlns="http://www.w3.org/2000/svg">
<path d="M17.2222 87.5V115M23.3333 5V32.5M29.4444 101.25H5M35.5556 18.75H11.1111M66.1111 5L76.8227 35.555C77.9709 38.8307 78.5454 40.4685 79.4248 41.8496C80.2039 43.0737 81.1567 44.1456 82.2451 45.0223C83.4722 46.0114 84.9284 46.6577 87.8398 47.9495L115 60L87.8398 72.0505C84.9284 73.3423 83.4722 73.9886 82.2451 74.9779C81.1567 75.8544 80.2039 76.9262 79.4248 78.1507C78.5454 79.5312 77.9709 81.1695 76.8227 84.4448L66.1111 115L55.3996 84.4448C54.2513 81.1695 53.6768 79.5312 52.7974 78.1507C52.0183 76.9262 51.0656 75.8544 49.9772 74.9779C48.7501 73.9886 47.294 73.3423 44.3823 72.0505L17.2222 60L44.3823 47.9495C47.294 46.6577 48.7501 46.0114 49.9772 45.0223C51.0656 44.1456 52.0183 43.0737 52.7974 41.8496C53.6768 40.4685 54.2513 38.8307 55.3996 35.555L66.1111 5Z" stroke="white" stroke-width="10" stroke-linecap="round" stroke-linejoin="round"/>
</svg>
