<svg width="118" height="118" viewBox="0 0 118 118" fill="none" xmlns="http://www.w3.org/2000/svg">
<path d="M16.2222 86.5V114M22.3333 4V31.5M28.4444 100.25H4M34.5556 17.75H10.1111M65.1111 4L75.8227 34.555C76.9709 37.8307 77.5454 39.4685 78.4248 40.8496C79.2039 42.0737 80.1567 43.1456 81.2451 44.0223C82.4722 45.0114 83.9284 45.6577 86.8398 46.9495L114 59L86.8398 71.0505C83.9284 72.3423 82.4722 72.9886 81.2451 73.9779C80.1567 74.8544 79.2039 75.9262 78.4248 77.1507C77.5454 78.5312 76.9709 80.1695 75.8227 83.4448L65.1111 114L54.3996 83.4448C53.2513 80.1695 52.6768 78.5312 51.7974 77.1507C51.0183 75.9262 50.0656 74.8544 48.9772 73.9779C47.7501 72.9886 46.294 72.3423 43.3823 71.0505L16.2222 59L43.3823 46.9495C46.294 45.6577 47.7501 45.0114 48.9772 44.0223C50.0656 43.1456 51.0183 42.0737 51.7974 40.8496C52.6768 39.4685 53.2513 37.8307 54.3996 34.555L65.1111 4Z" stroke="white" stroke-width="7" stroke-linecap="round" stroke-linejoin="round"/>
</svg>
